<svg xmlns="http://www.w3.org/2000/svg" height="2666.667" width="4008.667"><path d="M4008.67-.009v2666.676H0V-.01h4008.67" fill="#fff"/><path d="M724.86 2448.293H199.479l9.286-257.786.27-7.8.065-1.614 432.033-19.746 62.042-2.827 1.801 24.053 7.923 105.814.013.146 2.867 38.44v.014l1.261 16.733 7.82 104.573" fill="#e2b897"/><path d="M474.465 2448.293H199.273l4.939-261.986.103-5.214 4.72 1.614 50.352 17.306 125.088 42.96s.064.027.205.067l82.852 28.467 6.933 176.786" fill="#e2b897"/><path d="M528.403 1501.587L377.4 1519.28l-3.704-101.667-.257-7-.49-13.373 123.546-14.48 8.037-.933 6.753 33.893 17.118 85.867" fill="#f8bd8c"/><path d="M354.15 1485.96s-175.942 73.307-180.83 87.973c-4.887 14.667-24.436 56.2-24.436 56.2s85.528 207.72 63.535 278.587c-21.994 70.867-7.331 188.16-7.331 224.813 0 36.654-14.663 51.32 12.217 61.094 26.882 9.773 114.854 4.88 163.726 0 48.873-4.894 149.064 1.506 171.056 5.64 21.994 4.133 153.95-17.867 153.95-17.867s17.107-92.853 12.219-139.28c-4.887-46.44 1.757-156.4.879-173.507-.879-17.106 8.372-24.44.081-65.973-8.29-41.547 33.252-268.8 33.252-268.8l-202.824-73.933-195.493 25.053" fill="#31185e"/><path d="M446.037 1477.387l-25.376 84.853-111.65-56.333 27.062-28.52h109.964" fill="#2a1656"/><path d="M312.312 1505.333l107.117 54.054 23.923-80h-106.42zm109.58 59.774l-116.183-58.627 29.504-31.093h113.51l-26.831 89.72" fill="#1d1647"/><path d="M424.27 1477.387l34.217 84.853 127.361-89.68-30.415-32.787-131.162 37.614" fill="#2a1656"/><path d="M426.955 1478.693l32.442 80.467 123.428-86.92-28.022-30.2zm30.62 86.64l-35.99-89.253 134.478-38.56 32.808 35.36-131.296 92.453" fill="#1d1647"/><path d="M235.964 1537.84s75.173 29.107 68.283 323.92l273.848-62.867 33.574 138.747s-300.532 130.053-378.534 127.893c-78.004-2.173-128.477-357.68-112.41-396.706 16.052-39.014 20.47-94.587 112.238-129.28l3.001-1.707" fill="#31185e"/><path d="M592.593 1805.933l70.555-26.4-17.504 106.534-55.148 2.76-12.076-75.454 14.173-7.44M372.605 1850.12l-57.662 13.293-2.298-13.973-3.809-23.173 3.948 1.48 59.821 22.373" fill="#f8bd8c"/><path d="M688.487 1553.16L643.3 1874.733l-286.924-38.586-33.899 141.48s388.603 94.333 465.403 68.6c76.816-25.72 40.668-379.44 20.343-424.467-20.343-45.013-34.074-80.227-61.17-88.8-27.112-8.56-58.566 20.2-58.566 20.2" fill="#31185e"/><path d="M511.285 1415.72c-6.045 13.853-16.565 26.72-32.848 32.56-35.896 12.907-80.794-14.04-104.741-30.667l-.257-7c2.07.32 4.412.614 7.048.827 15.818 1.307 39.42.893 69.102-6.533 21.235-5.307 36.411-13.894 46.906-22.147l8.037-.933 6.753 33.893" fill="#eab186"/><path d="M528.775 1250.573c6.585 83.294-32.775 154.52-93.936 159.36-61.16 4.84-116.082-58.76-122.667-142.053-6.585-83.307 37.657-154.747 98.817-159.587 61.162-4.826 111.199 58.987 117.786 142.28" fill="#f8bd8c"/><path d="M445.153 1433.28c-58.549 8.693-115.928-51.813-128.244-134.987-1.172-8.026-1.857-15.933-2.248-23.76 13.683 80.84 70.184 139 127.658 130.494 52.781-7.814 88.362-69.2 85.821-142.227.293 1.373.49 2.747.685 4.107 12.314 83.186-25.122 157.666-83.672 166.373M358.224 1066.467s-.696 61.906 14.72 70.866c15.417 8.96 33.04-7.333 47.036-9.773 13.997-2.44 42.325-4.853 62.17 12.44 19.842 17.293 36.874 67.72 36.874 67.72l4.355 16.893s11.602 2.934 12.825-12.96c1.221-15.88-2.037-82.466 0-88.986 2.036-6.52 1.221-13.027-6.11-20.36-7.33-7.334-16.698-18.734-13.846-23.627 2.85-4.88 15.068-17.507 3.257-28.507-11.81-11-68.829-17.92-79.42-8.146-10.588 9.773-50.093-27.694-81.861 24.44" fill="#1a1a1a"/><path d="M347.43 1071.147s-55.593 6.106-56.814 54.986c0 0-6.72 11-20.16 28.707-13.44 17.72 2.443 47.653 6.108 65.373 3.667 17.72 11.201 32.374 10.793 37.667-.406 5.293 9.762 15.48 18.932 11.413 9.171-4.08 11.207-14.946 11.207-14.946s.815-68.96 10.997-81.174c10.182-12.226 27.49-24.226 37.47-29.32 9.978-5.106 12.217-14.666 12.217-15.893 0-1.213-12.625-68.013-12.625-68.013l-18.124 11.2" fill="#1a1a1a"/><path d="M335.196 1280.533c7.659 15.747 4.848 32.894-6.277 38.307-11.126 5.413-26.352-2.973-34.011-18.72-7.657-15.747-4.848-32.893 6.277-38.307 11.126-5.413 26.354 2.974 34.011 18.72M551.028 1259c-2.001 17.387-13.587 30.347-25.877 28.933-12.29-1.413-20.631-16.666-18.63-34.053 2-17.4 13.586-30.36 25.876-28.947 12.291 1.414 20.631 16.667 18.631 34.067" fill="#f8bd8c"/><path d="M383.315 1227.493c-7.606.48-15.648 1.494-23.198 3.067-7.536 1.587-15.092 3.84-20.736 7.347l-.281.173c-2.981 1.84-6.899.933-8.748-2.053-1.819-2.934-.955-6.774 1.913-8.667 8.17-5.36 16.562-7.827 24.886-9.907 8.394-2.013 16.578-3.306 25.262-4.12a7.105 7.105 0 017.727 6.414c.365 3.893-2.501 7.346-6.403 7.72-.062 0-.121.013-.184.013l-.238.013M376.853 1257.747c.898 6.066-2.522 11.6-7.64 12.36-5.118.76-9.994-3.547-10.893-9.614-.899-6.08 2.521-11.613 7.64-12.373 5.117-.747 9.995 3.56 10.893 9.627M447.897 1219.773c7.516-1.253 15.578-2.093 23.291-2.266 7.697-.174 15.568.32 21.859 2.44l.314.106c3.322 1.134 6.93-.653 8.055-3.973 1.107-3.267-.607-6.813-3.828-8-9.172-3.373-17.907-3.88-26.487-4.027-8.63-.04-16.894.56-25.536 1.734-3.882.533-6.601 4.106-6.073 7.986a7.089 7.089 0 007.987 6.067c.062 0 .121-.013.182-.027l.236-.04M461.052 1247.773c.503 6.12 5.088 10.734 10.245 10.307 5.156-.413 8.928-5.72 8.427-11.84-.501-6.107-5.088-10.733-10.244-10.307-5.156.427-8.93 5.72-8.428 11.84M390.8 1395.24c3.217 2.187 14.399-.507 18.017-1.28 6.16-1.307 13.206-3.653 17.067-8.973 4.416-6.107 2.365-15.307 1.816-22.267-.156-1.987.184-7.48-1.461-9.12 0 0 16.142-2.427 16.289-2.453-1.443.226 2.879 22.973 3.565 24.826 1.834 4.96 6.82 7.76 11.714 9 5.117 1.294 10.692 1.44 15.936 1.054 1.289-.094 13.91-1.174 14.024-2.494-.096 1.12-.915 2.014-1.698 2.827-8.226 8.427-17.334 15.973-26.433 23.44 0 0-43.172 3.667-44.393 2.44-1.22-1.213-24.395-16.96-24.443-17" fill="#1a1a1a"/><path d="M471.203 1335.267c-5.67 10.066-17.692 18.466-32.843 21.4-20.137 3.906-38.904-2.934-46.137-15.64 0-.187.196-.387.392-.587 2.541-2.147 5.181-4 8.013-5.573l59.137-7.04c4.595.986 8.702 2.746 11.438 7.44" fill="#fcfcfc"/><path d="M386.977 1403.307c-1.269-12.32-4.79-51.734.355-63.467v-.8l1.756-1.987c3.255-2.773 6.137-4.786 9.183-6.466 9.584-5.614 21.534-8.84 34.44-9.294 7.093-.333 14.08-.08 20.79.707l1.662.2c1.908.227 3.78.453 5.65.867 4.735 1 10.7 3.026 14.614 9.733 4.057 6.933 5.794 14.427 7.484 21.68.429 1.867.868 3.733 1.337 5.573 2.825 11.28 3.703 20.827 2.757 30.054l-9.717-1c.812-8.054.019-16.534-2.52-26.654-.477-1.893-.925-3.826-1.384-5.76-1.584-6.84-3.083-13.293-6.405-18.96-1.603-2.773-3.914-4.2-8.228-5.12-1.584-.346-3.14-.52-4.724-.706l-1.71-.2c-6.137-.72-12.609-.947-19.214-.654-11.34.4-21.707 3.174-30.003 8.04-2.396 1.307-4.6 2.827-6.815 4.654l-.077.106c-2.844 4.347-2.041 33.747.487 58.454l-9.718 1M414.903 1300.413c-.478 0-.939-.253-1.179-.706a1.333 1.333 0 01.552-1.8l10.51-5.6c3.34-1.774 5.2-4.987 4.74-8.2l-5.337-37.014a1.34 1.34 0 011.13-1.52c.724-.093 1.404.4 1.509 1.134l5.336 37.026c.624 4.334-1.78 8.627-6.125 10.934l-10.511 5.6a1.31 1.31 0 01-.625.146" fill="#1a1a1a"/><path d="M465.481 2273.147zm9.439 126.453a2.662 2.662 0 01-2.664-2.6c-1.044-44.147-3.752-115.867-6.641-123.533-9.692-5.787-57.554-20.72-81.899-27.934a2.657 2.657 0 01-1.8-3.306 2.67 2.67 0 013.315-1.8c2.952.866 72.449 21.493 83.752 28.853 1.766 1.147 3.964 2.573 6.593 65.933 1.272 30.654 2.005 61.347 2.012 61.654a2.67 2.67 0 01-2.603 2.733h-.065" fill="#666b6d"/><path d="M311.513 1866.08c-.558 0-1.109-.173-1.569-.52a2.643 2.643 0 01-1.095-2.027c-.384-7.933-11.069-134.586-11.177-135.866a2.663 2.663 0 012.433-2.88 2.669 2.669 0 012.882 2.44c.409 4.853 9.401 111.426 10.969 132.773 14.94-4.013 79.137-21.093 104.821-26.173a2.661 2.661 0 013.134 2.093 2.66 2.66 0 01-2.099 3.133c-28.835 5.707-106.82 26.72-107.604 26.934-.23.066-.463.093-.695.093M241.65 2062.813c-8.46 0-16.178-.866-22.534-2.946-38.256-12.534-64.43-115.347-65.524-119.72a2.653 2.653 0 011.937-3.227 2.666 2.666 0 013.236 1.933c.262 1.04 26.535 104.32 62.012 115.947 36.015 11.8 122.796-18.96 123.668-19.267 1.384-.506 2.912.227 3.41 1.614a2.656 2.656 0 01-1.614 3.4c-3.02 1.08-62.83 22.266-104.59 22.266M450.677 2002.493a2.671 2.671 0 01-2.385-1.48c-.66-1.306-.127-2.906 1.19-3.573l81.154-40.667a2.68 2.68 0 013.579 1.187c.66 1.32.126 2.92-1.19 3.587l-81.154 40.666c-.384.187-.791.28-1.194.28M640.725 1876.08c-.141 0-.282 0-.425-.027a2.668 2.668 0 01-2.21-3.053l22.425-139.933c.233-1.454 1.608-2.454 3.054-2.214a2.668 2.668 0 012.211 3.054l-22.425 139.933a2.666 2.666 0 01-2.63 2.24M680.132 2048.733c-.136 0-.273-.013-.412-.026l-134.425-20.867a2.664 2.664 0 11.817-5.267l134.425 20.854a2.677 2.677 0 012.227 3.053 2.673 2.673 0 01-2.632 2.253" fill="#1d1647"/><path d="M1352.947 1228.28l-24.227 88.507 52.253 61.173 74.654-37.427-3.134-93.226-99.546-19.027" fill="#f8bd8c"/><path d="M1619.693 2009.373v438.92H1397.08v-427.8l208.013-10.386 14.6-.734" fill="#31185e"/><path d="M1469.427 2029.773l-7.614 21.067-7.493 20.787-25.227 69.826-32.013 88.654-51.413 218.186h-201.404c.116.614.166.934.166.934l-27.65.666.193-1.6 11.099-89.36 1.62-13.106 4.346-35.054 4.078-32.813 3.074-24.8 14.404-116.067 3.923-31.586 9.401-75.734h300.51" fill="#31185e"/><path d="M1334.427 1300.52s-109.45 66.813-157.68 90.293c-48.231 23.467-79.766 57.787-90.896 77.64-11.13 19.867-37.1 37.934-35.246 50.56 1.855 12.654-42.665 66.827-51.94 111.96-9.276 45.147-25.97 195.027-25.97 200.44 0 5.427 29.68 130.027 29.68 130.027s87.186 86.667 105.736 106.533c18.55 19.867 74.201 52.374 81.621 52.374 7.42 0 53.796-30.707 51.94-61.4-1.855-30.707-14.84-119.187-27.825-133.627-10.154-11.293-22.578-21.493-31.947-36.627a86.83 86.83 0 01-7.008-13.933c-9.276-23.48 16.695-79.453 16.695-79.453s83.476-198.64 79.766-225.72c-3.71-27.094 24.115-122.8 16.695-148.08-7.42-25.28 46.379-120.987 46.379-120.987" fill="#c5a2fd"/><path d="M1629.373 1544.2s18.547 254.72 16.694 298.053c-1.854 43.334-10.867 68.614.133 117.374 11 48.76 5.693 63.2 0 81.266-5.693 18.054-76.187 16.24-76.187 16.24l-330.316-19.226-124.166-179.4 161.386-502 57.51-55.987s65.853 55.987 120.573 22.573c0 0 152.107 85.774 173.44 102.027s.933 119.08.933 119.08" fill="#c5a2fd"/><path d="M1630.613 1431.747s53.174 52.96 51.934 87.88c-1.24 34.906 13.6 164.92 11.133 202.24-2.48 37.32 3.707 38.52 8.653 66.213 4.947 27.693 25.36 83.067 27.214 144.467 1.853 61.386 28.746 105.626 10.2 136.333-18.547 30.693-32.467 39.72-32.467 39.72s-4.64-46.84-12.987-51.413c-8.346-4.56-48.093-16.294-48.093-16.294l-44.04-486.36 28.453-122.786" fill="#c5a2fd"/><path d="M1340.987 1240.587c-5.334-12.44 35.573 68.866 77.333 64.306 35.827-3.906 37.307-70.106 37.307-70.106s-12.72 20.906-50.52 20.946c-42.16.054-64.12-15.146-64.12-15.146" fill="#eab186"/><path d="M1529.747 1135.293c-.974 17.867-12.814 31.76-26.467 31.014-13.64-.734-23.92-15.814-22.96-33.68.96-17.867 12.813-31.747 26.453-31.014 13.654.734 23.934 15.814 22.974 33.68M1332.05 1124.373c-.963 17.854-12.809 31.747-26.457 31.014-13.648-.747-23.929-15.827-22.965-33.694.964-17.853 12.81-31.746 26.457-31 13.648.734 23.93 15.814 22.966 33.68" fill="#f2b588"/><path d="M1518.6 1134.44c-12.947 76.053-57.053 141.413-117.84 138.133-60.787-3.28-92.704-59.893-102.293-150.013-8.414-79.067 57.053-141.427 117.84-138.147 60.786 3.28 115.653 71.56 102.293 150.027" fill="#f8bd8c"/><path d="M1379.08 1014.32c.187 5.04-.6 13.133-.107 15.573 1.347 6.72 4.88 13.267 10.6 16.374 3.947 2.146 8.507 2.466 12.947 2.586 16.147.427 33.013-6.533 48.507-5.813 7.133.333 12.546 5.493 18.6 9.533 11.186 7.48 31.8 5.72 31.813 5.734 10.56 14.76 11.573 36.76 22.333 50.386 2.6-1.6 4.934-3.72 7.36-5.773 14.48-12.187 15.334-14.4 10.64-33.52-3.746-15.307 6.534-21.84 11.747-34.107 7.16-16.813 19.587-32.4 6.92-45.506-16.467-17.04-28.44-30.734-38.933-53.027-5.854-12.44-13.707-26.04-26.547-28.427-20.707-3.853-36.467 18.894-57.307 5.014-7.586-5.067-14.88-11.574-23.773-12.72-9.227-1.174-18.24 3.746-25.747 9.666-9.373 7.4-17.88 16.08-28.813 20.84-18.04 7.827-38.776 10.974-53.581 25.614-9.9 9.786-15.364 23.053-20.359 36.16-4.233 11.093-11.73 23.853-12.828 35.773-1.237 13.427 6.583 42.2 17.21 50.693 5.13 4.107 8.92 13.907 8.92 13.907s16.335-30.067 19.085-36.933c2.749-6.867 16.193-24.614 25.473-31.12 9.267-6.507 12.36-8.894 19.68-12.32 4.827-2.267 15.853-7.6 16.16 1.413" fill="#31185e"/><path d="M1358.893 1119.32c-.28 5.28-4.8 9.333-10.08 9.04-5.28-.28-9.333-4.8-9.053-10.08.293-5.28 4.8-9.333 10.08-9.053 5.293.293 9.347 4.8 9.053 10.093M1473.16 1125.48c-.28 5.28-4.8 9.333-10.08 9.053-5.293-.28-9.333-4.8-9.053-10.08.28-5.293 4.8-9.333 10.08-9.053 5.28.28 9.333 4.8 9.053 10.08" fill="#1b191b"/><path d="M1326.32 1091.747a6.409 6.409 0 01-5.88-3.934c-1.367-3.266.185-7.04 3.45-8.4 30.91-12.88 54.257-.546 55.23-.026a6.435 6.435 0 012.6 8.706 6.424 6.424 0 01-8.68 2.6c-.893-.48-19.267-9.826-44.21.574a6.406 6.406 0 01-2.51.48M1442.573 1095.827a6.421 6.421 0 01-5.626-4.307c-1.147-3.347.64-7.013 3.973-8.173 31.667-10.88 54.187 2.88 55.133 3.466 3 1.894 3.907 5.854 2.04 8.854-1.893 3-5.813 3.92-8.826 2.053-.867-.533-18.614-11.027-44.16-2.227a6.68 6.68 0 01-2.534.334" fill="#31185e"/><path d="M1506.373 1120.453c-.013 5.494-.986 17.427-4.573 25.814-2.787 6.52-6.627 10.8-12.347 13.453-2.12.987-4.493 1.76-7.173 2.333-9.893 2.107-22.6 1.347-31.6-1.893-9.72-3.493-16.547-11.467-19.213-22.44-2.947-12.16-3.107-24.027-1.6-28.44.12-.147.226-.307.32-.48 2.946-4.627 9.72-8.333 26.773-10.173 15.853-1.72 31.467 1.173 39.733 5.186.64.294 1.214.614 1.76.92 5.68 3.32 7.4 11.6 7.92 15.654zm-119 14.894c-3.813 10.626-11.453 17.813-21.506 20.226-9.307 2.254-22.014 1.64-31.614-1.52-4.737-1.56-8.442-3.653-11.309-6.506-2.92-2.894-4.977-6.574-6.419-11.28-2.662-8.72-2.328-20.694-1.748-26.16v-.054c.835-3.48 2.932-10.053 7.446-13.453a11.44 11.44 0 012.122-1.267c8.09-3.613 25.162-5.28 41.908-1.6 16.747 3.667 23.08 8.067 25.507 13 .08.174.187.347.28.507 1.027 4.547-.413 16.32-4.667 28.107zm134.88-28.734v-.013c-.213-1.387-.88-2.653-1.84-3.653a4.858 4.858 0 00-.746-.64c0-.014-.014-.014-.014-.014a6.261 6.261 0 00-1.653-.92c-2.253-.853-5.387-1.84-9.507-2.76-2.426-.533-6.306-1.28-11.12-2.04-4.6-.746-10.053-1.52-15.88-2.16h-.04c-8.333-.933-17.44-1.6-25.933-1.586h-.013c-4.64.013-9.107.226-13.174.72-1.333.173-2.586.333-3.746.52-15.32 2.346-16.027 6.12-15.894 8.213a.387.387 0 01-.6.36c-3.213-1.987-7-2.827-10.706-3.027-3.694-.2-7.56.227-10.974 1.854-.293.146-.613-.08-.56-.427.387-2.2-.013-6.467-18.613-10.8-.36-.093-.733-.16-1.107-.24-4.746-1.027-10.066-1.76-15.6-2.24h-.013c-6.493-.573-13.267-.827-19.707-.867h-.013c-9.533-.066-18.32.32-24.43.747-2.353.173-4.294.333-5.735.507-4.438.506-7.858 1.2-10.302 1.813a6.066 6.066 0 00-3.177 1.973l-.012.014a6.395 6.395 0 00-1.633 3.96c0 .106-.014.24-.014.36 0 2.546 1.428 4.973 3.782 5.933.977.4 1.993 1.107 2.893 2.307 2.355 3.146 2.959 5.826 5.788 7.146a.37.37 0 01.232.36c-.439 6.227-.373 16.84 2.07 24.867 1.557 5.08 3.858 9.107 7.113 12.28 3.098 3.067 7.086 5.333 12.105 6.987 4.88 1.6 10.547 2.586 16.173 2.88 5.907.32 11.814-.094 16.787-1.307 10.813-2.6 19.04-10.293 23.12-21.64 3.72-10.32 5.227-20.467 4.973-26.4.84.267 1.614.107 2.4-.56l.107-.013c.147-.12.36-.28.493-.44 1.307-1.2 5.427-4.227 13.574-3.787 8.16.453 11.92 3.88 13.08 5.213.133.187-.014.347.12.494h-.267c.6.6 1.427.893 2.2.88.267 0 .467.173.44.44-.787 5.933-.12 15.946 2.4 26.306 2.84 11.72 10.24 20.254 20.72 24.014 4.813 1.733 10.667 2.773 16.587 3.106 5.626.307 11.36-.053 16.386-1.12 3.147-.693 5.934-1.626 8.427-2.866 5.8-2.934 9.867-7.52 12.733-14.227 3.294-7.72 4.467-18.253 4.707-24.493 0-.16.107-.294.267-.347 2.933-1 3.56-3.613 6.24-6.493.933-1 1.893-1.587 2.786-1.907 1.054-.373 1.96-1 2.68-1.8a6.778 6.778 0 001.374-2.36 6.87 6.87 0 00.333-1.747c0-.106.013-.226.013-.36 0-.346-.026-.68-.08-1" fill="#1b191b"/><path d="M1401.6 1219.627c-11.92 0-20.093-5.494-20.227-5.574a1.02 1.02 0 01-.253-1.4c.32-.453.933-.56 1.387-.253.813.56 20.106 13.427 42.866-2.933a1 1 0 011.387.226c.32.454.227 1.08-.227 1.4-9.04 6.507-17.68 8.534-24.933 8.534M1404.027 1182.787a.948.948 0 01-.534-.147c-.2-.133-4.84-3.133-5.213-6.813-.333-3.294 1.04-20.08 1.107-20.787a1.01 1.01 0 011.08-.92c.546.053.96.533.906 1.093-.493 5.96-1.36 17.92-1.106 20.414.24 2.266 3.186 4.613 4.293 5.32a.997.997 0 01-.533 1.84"/><path d="M1164.47 1680.613a2.68 2.68 0 01-1.14-.266 2.66 2.66 0 01-1.27-3.547c2.904-6.133 27.19-78.88 27.607-84.48a2.658 2.658 0 012.857-2.453 2.663 2.663 0 012.461 2.853c-.494 6.653-25.512 80.88-28.104 86.36a2.679 2.679 0 01-2.412 1.533M1418.6 1337.12c-10.347 0-22.88-1.92-37.653-7.307-1.947-.706-29.08-14.533-34.494-17.306a2.65 2.65 0 01-1.16-3.587 2.657 2.657 0 013.587-1.16c12.267 6.253 32.307 16.413 33.907 17.053 47.44 17.267 70.146-3.44 70.373-3.653 1.067-1.013 2.76-.96 3.773.093a2.656 2.656 0 01-.093 3.76c-.707.68-13.027 12.107-38.24 12.107M1397.08 2232.773c-.293 0-.6-.053-.907-.16a2.655 2.655 0 01-1.6-3.413l32.014-88.653a2.66 2.66 0 013.413-1.6 2.655 2.655 0 011.6 3.413l-32.013 88.653a2.647 2.647 0 01-2.507 1.76" fill="#9e4aff"/><path d="M2329.552 1399.031l-159.567 2.826 11.276-130.424h134.2l14.091 127.598" fill="#f8bd8c"/><path d="M2361.94 1174.337c0 85.216-51.292 154.295-114.577 154.295-63.286 0-114.579-69.079-114.579-154.295 0-35.37-8.512-89.577 6.352-115.608 20.955-36.66 71.204-38.676 108.227-38.676 36.82 0 80.397-8.585 101.367 27.756 15.052 26.118 13.21 90.897 13.21 126.528" fill="#1a1a1a"/><path d="M2379.4 1109.456s12.223-119.596-6.587-139.36c-18.81-19.778-8.32-25.427-28.597-31.076-20.292-5.649-20.586-16.008-54.01-16.008-5.751 0-8.568-3.77-40.54-3.77-10.344 0-27.276-8.481-51.251 4.71-23.96 13.175-39.234-5.18-56.519 17.063-17.255 22.244-23.843 10.242-38.882 45.09-15.04 34.832 4.695 51.793 8.466 89.458 3.756 37.664 23.52 67.787 23.52 67.787l239.03-7.66 5.37-26.234" fill="#1a1a1a"/><path d="M2361.94 1149.307c0 85.214-51.292 154.293-114.577 154.293-63.286 0-114.579-69.08-114.579-154.293 0-35.37-8.512-89.577 6.352-115.608 20.955-36.66 71.204-38.69 108.227-38.69 36.82 0 80.397-8.571 101.367 27.77 15.052 26.118 13.21 90.897 13.21 126.528" fill="#f8bd8c"/><path d="M2156.067 1157.973c1.493 18.107-6.747 33.56-18.387 34.52-11.64.96-22.28-12.946-23.773-31.04-1.48-18.106 6.746-33.56 18.4-34.52 11.64-.96 22.28 12.934 23.76 31.04M2336.63 1156.639c-2.63 17.982 4.63 33.92 16.17 35.614 11.57 1.695 23.067-11.496 25.696-29.479 2.63-17.968-4.616-33.92-16.171-35.615-11.555-1.694-23.066 11.512-25.696 29.48" fill="#f8bd8c"/><path d="M2213.315 1072.061c-2.781-.095-5.195 0-7.771.096-2.522.082-5.044.273-7.567.504-5.044.491-10.06 1.186-15.064 2.168-5.017 1.009-10.02 2.25-14.942 3.954-4.908 1.745-9.761 3.94-14.287 6.857a5.935 5.935 0 00-2.509 6.626 5.941 5.941 0 007.348 4.09l.3-.082c4.254-1.214 8.603-2.168 13.034-2.986 4.471-.763 8.984-1.39 13.55-1.868 4.582-.45 9.19-.763 13.838-.981 2.304-.123 4.622-.191 6.926-.26 2.29-.095 4.717-.095 6.776-.122h.259c4.771-.082 8.684-3.913 8.834-8.725a9.002 9.002 0 00-8.725-9.27M2332.996 1085.639c-4.544-2.924-9.39-5.103-14.306-6.866-4.917-1.692-9.92-2.925-14.923-3.942a160.156 160.156 0 00-15.066-2.165c-2.522-.23-5.045-.43-7.583-.516-2.565-.1-4.988-.172-7.769-.1-4.773.157-8.658 4.042-8.715 8.859-.086 4.974 3.87 9.06 8.844 9.145h.23c2.064.029 4.515.029 6.78.13 2.308.07 4.615.142 6.938.257 4.63.215 9.26.53 13.833.975a220.36 220.36 0 0113.56 1.863c4.43.832 8.773 1.778 13.016 2.996l.315.086c2.452.688 5.175-.258 6.623-2.508a5.947 5.947 0 00-1.777-8.214M2197.957 1132.992c0 5.73-3.735 10.369-8.333 10.369-4.612 0-8.347-4.639-8.347-10.37 0-5.717 3.735-10.355 8.347-10.355 4.598 0 8.333 4.638 8.333 10.356M2306.885 1132.999c0 5.718-3.737 10.36-8.35 10.36-4.6 0-8.336-4.642-8.336-10.36 0-5.718 3.736-10.36 8.336-10.36 4.613 0 8.35 4.642 8.35 10.36" fill="#1a1a1a"/><path d="M2247.529 1196.065h-.028c-1.227-.055-12.027-.634-14.468-4.083-.524-.73-.649-1.572-.387-2.427 1.463-4.855 6.98-36.923 7.049-37.24a.658.658 0 01.758-.552c.373.069.62.414.552.772-.22 1.324-5.586 32.482-7.09 37.406-.138.469-.082.869.207 1.269 1.752 2.469 10.276 3.38 13.434 3.517a.675.675 0 01.635.704.657.657 0 01-.662.634" fill="#2c2a30"/><path d="M2118.716 1008.213s25.66 36.892 49.561 30.411c23.902-6.48 37.487-33.84 48.82-21.46 11.32 12.394 30.978 10.388 46.307.726 15.344-9.662 10.331 2.746 30.455 5.914 20.153 3.153 29.917-3.095 44.665 15.59 14.733 18.686 29.844 9.764 24.802-15.59-5.027-25.355-39.245-79.798-69.467-64.251-30.193 15.561-175.143 48.66-175.143 48.66M2346.741 1135.843c-.058.247-.101.494-.16.726-1.568 7.321-4.56 18.448-10.298 23.183a9.42 9.42 0 01-1.365.973c-7.815 4.663-23.27 7.19-36.198 5.549-12.943-1.656-21.556-6.58-26.684-16.24-1.322-2.469-2.832-6.42-4.154-10.923-2.833-9.79-4.823-22.18-2.005-27.526 4.097-7.8 25.856-10.487 35.922-11.098 13.32-.827 33.467-.406 41.456 5.143 7.22 5.01 5.578 19.231 3.995 27.685-.175.915-.363 1.772-.509 2.528zm-126.43 14.191c-5.128 9.66-13.756 14.584-26.699 16.24-12.913 1.641-28.383-.886-36.183-5.549-.436-.247-.842-.552-1.249-.871-4.3-3.457-7.074-10.488-8.86-16.894a114.15 114.15 0 01-1.715-7.117 87.863 87.863 0 01-.77-4.01c-1.496-8.555-2.556-21.483 4.257-26.203 7.989-5.55 28.121-5.97 41.456-5.143 10.066.61 31.81 3.298 35.907 11.098 2.963 5.621.639 18.956-2.44 28.92-1.206 3.908-2.528 7.307-3.704 9.53zm141.29-53.715c-.494-.146-.988-.262-1.482-.378-7.684-1.787-16.123-2.862-24.722-3.399-8.73-.552-17.62-.537-26.088-.102h-.03c-16.558.843-31.505 3.283-40.322 6.188-7.161 2.368-15.6 5.723-22.79 5.723-7.177 0-15.616-3.355-22.777-5.723-9.601-3.152-26.422-5.766-44.71-6.391h-.029c-8.962-.29-18.259-.116-27.235.726-7.278.668-14.323 1.758-20.801 3.385-.015 0-.044 0-.058.014a84.972 84.972 0 00-5.898 1.656l.93 17.068s2.586-.567 4.837 1.002c.363.276.74.61 1.09 1.017.61.712 1.133 1.656 1.51 2.905.421 1.423.988 3.878 1.685 6.943 1.06 4.561 2.411 10.473 4.169 16.283 2.106 7.132 4.808 14.09 8.12 18.317 2.368 2.978 5.389 5.287 8.817 7.016 10.69 5.476 25.347 5.636 36.096 5.171 19.101-.813 31.608-9.325 36.953-23.706a290.694 290.694 0 003.414-9.79c3.37-9.964 5.737-17.866 8.337-20.844 1.86-2.106 3.922-2.252 5.55-2.252 1.626 0 3.703.146 5.548 2.252 2.527 2.89 4.837 10.415 8.018 19.973a473.56 473.56 0 003.733 10.661c5.36 14.38 17.867 22.893 36.953 23.706 10.691.45 25.246.305 35.922-5.07 3.486-1.757 6.566-4.067 8.991-7.117 4.402-5.578 7.684-16.05 10.052-25.26.843-3.24 1.554-6.333 2.164-8.991.741-3.21 1.322-5.81 1.758-7.292.494-1.641 1.264-2.76 2.12-3.53.175-.16.35-.305.553-.421 2.222-1.54 4.779-.973 4.779-.973l.915-17.068c-1.947-.639-3.98-1.191-6.072-1.7" fill="#1a1a1a"/><path d="M2494.077 1401.799s94.521 39.132 113.81 61.96c19.29 22.813 84.869 217.653 84.869 319.893 0 102.24 15.435 259.214 0 288.761-15.419 29.546-84.868 176.053-131.173 209.867-46.305 33.799-65.263 31.28-65.263 31.28l-11.33-152.187 49.594-240.748-25.171-362.773-15.336-156.053" fill="#e2b897"/><path d="M2244.109 2231.573c-4.724 22.16-10.77 109.08-16.28 204.653-.207 4.013-.44 8.027-.675 12.067h-239.585c-2.63-145.427 2.259-285.12 2.259-285.12s2.245.12 6.322.359c2.08.147 4.641.293 7.63.507.276.027.579.04.882.067.055 0 .096 0 .137.012 21.762 1.493 64.239 4.934 107.459 11.32 22.574 3.348 45.383 7.507 65.533 12.614 28.276 7.147 51.374 16.174 61.346 27.48a29.258 29.258 0 011.9 2.374v.013c.372.547.717 1.08 1.033 1.627 2.19 3.772 2.962 7.774 2.039 12.027" fill="#755faa"/><path d="M2496.312 2188.055v260.24h-265.206l-2.297-10.281-.996-1.786-52.131-95.774-59.79-108.4-9.877-17.892-1.118-2.04-13.294-24.067h404.71" fill="#755faa"/><path d="M2169.99 1335.468h159.574l20.681 37.307 143.83 28.6s95.902 46.012 98.709 53.467c2.823 7.467 36.667 392.985 22.568 487.492-14.1 94.507-5.646 198.973-19.745 246.226-14.1 47.267-583.803 19.908-583.803 19.908s-115.615-701.386-78.964-733.72c36.667-32.333 220.922-82.494 227.036-93.266 6.114-10.788 10.115-46.014 10.115-46.014" fill="#ff7c90"/><path d="M2615.352 1946.294c-14.1 95.133-5.646 200.266-19.761 247.827-5.066 17.133-79.594 40.346-176.206 42.8-73.157 1.852-158.767-19.694-231.488-21.44-5.517-.135-10.954-.254-16.31-.36-90.159-1.867-159.783-.96-159.783-.96s-115.615-705.96-78.964-738.506c32.15-28.547 177.867-70.894 217.325-88.187l114.357 201.879 99.87-213.505 129.682 25.959s95.903 46.307 98.71 53.826c2.807 7.508 36.667 395.534 22.568 490.667" fill="#e2b897"/><path d="M2493.524 1828.025a2.667 2.667 0 01-2.665-2.64l-1.7-120.88c-.214-15.08-6.738-60.893-6.815-61.346-.199-1.467.812-2.815 2.267-3.014 1.44-.213 2.818.8 3.017 2.253.275 1.894 6.661 46.613 6.876 62.027l1.684 120.894a2.683 2.683 0 01-2.618 2.706h-.046" fill="#b08174"/><path d="M2208.046 1234.941c2.522 13.048 20.362 22.269 40.921 20.797 17.883-1.275 32.051-10.23 35.358-21.231l-76.28.434" fill="#fff"/><path d="M2266.126 1592.205a2.67 2.67 0 01-2.322-1.36l-54.395-96.014a2.663 2.663 0 011.003-3.64 2.67 2.67 0 013.64 1.013l51.845 91.52 64.368-137.612a2.675 2.675 0 013.554-1.282 2.662 2.662 0 011.275 3.548l-66.56 142.293a2.682 2.682 0 01-2.308 1.534h-.1" fill="#b08174"/><path d="M2404.693 2239.667c-31.348 0-69.084-2.427-109.082-10.266-99.514-19.533-167.13-13.427-167.803-13.36-1.483.12-2.767-.948-2.904-2.413a2.677 2.677 0 012.4-2.907c.687-.054 69.068-6.24 169.33 13.439 101.976 20.014 190.333 4.2 191.143 4.013 1.421-.32 2.858.573 3.179 2.001a2.654 2.654 0 01-1.987 3.199c-.474.107-34.221 6.294-84.276 6.294M2265.046 2390.373a2.675 2.675 0 01-2.667-2.666v-72.027c0-.187.014-.373.042-.56l8.477-39.867c.307-1.44 1.718-2.374 3.156-2.053a2.663 2.663 0 012.053 3.16l-8.393 39.6v71.747a2.675 2.675 0 01-2.668 2.666" fill="#1d1647"/><path d="M950.928 1276.347s33.033-12.214 62.892 3.04c31.796 16.253 47.935 32.506 55.248 169 7.312 136.493 6.499 204.733 7.312 215.306.812 10.56-259.99 7.307-259.99 7.307v-339.613l134.538-55.04" fill="#0b0635"/><path d="M819.25 1665s-132.773 14.467-130.285 243.267c2.5 228.813-46.273 212.84-6.389 375.8 0 0 90.219 18.253 141.919-18.627l-5.246-450.027V1665" fill="#fcfcfc"/><path d="M1142.888 2449.893l.192-1.6H717.208c4.257-25.453 13.98-63.093 25.94-104.573 1.107-3.84 2.239-7.747 3.383-11.653l.065-.227c4.217-14.4 8.668-29.133 13.208-43.893l.219-.72c20.668-67.187 43.252-134.694 55.612-171.067.012-.027.012-.04.012-.053 2.92-8.574 5.261-15.4 6.868-20.094v-.026c1.633-4.694 2.521-7.254 2.521-7.254h277.12c.797 2.307 2.212 8.267 4.103 17.094v.013c.476 2.2.977 4.573 1.505 7.12 5.479 26.373 13.916 70.453 22.828 118.173.013.014.013.014 0 .027.695 3.707 1.39 7.4 2.097 11.133 3.987 21.4 8.024 43.294 11.922 64.454.45 2.48.9 4.933 1.35 7.4.978 5.306 1.942 10.546 2.894 15.72.077.453.168.906.245 1.36.887 4.853 1.775 9.653 2.623 14.36.836 4.533 1.646 8.986 2.457 13.346 8.59 47.147 15.085 83.24 16.192 89.36.116.614.167.934.167.934l-27.651.666" fill="#ff7c90"/><path d="M825.295 1670.32s-60.215 17.507-52.095 144.067c8.121 126.573-60.167 283.52 38.175 301.773l270.954-3.373c25.558-.32 46.11-21.134 46.11-46.694v-398.6l-56.795-9.853-246.35 12.68" fill="#fcfcfc"/><path d="M991.07 1624.693l-98.04 2.947 3.365-84.2h89.8l4.876 81.253" fill="#f8bd8c"/><path d="M884.543 1612.253h125.149c8.083 0 15.055 6 16.697 14.36l7.104 36.187-172.184 6.68 6.396-42.053c1.33-8.747 8.464-15.174 16.838-15.174" fill="#fcfcfc"/><path d="M988.024 1573.907c-5.567 11.813-15.772 23.546-30.312 25.173-24.967 2.8-49.323-24.907-61.34-40.24-2.4-3.067-3.567-5.627-4.897-7.36 2.064 1.227 5.264 3.347 11.042 5.493 9.632 3.614 24.372 7.36 43.974 7.334 14.204-.014 25.058-3.4 32.886-7.334l7.588-.12 1.059 17.054" fill="#eab186"/><path d="M1030.135 1444.547c2.124 67.693-38.208 123.88-90.084 125.506-51.878 1.627-95.654-51.92-97.776-119.6-2.126-67.693 38.208-123.88 90.084-125.506 51.876-1.627 95.652 51.92 97.776 119.6" fill="#f8bd8c"/><path d="M1051.535 1451.96c0 14-12.156 27.533-22.182 27.533-10.026 0-18.154-11.346-18.154-25.36 0-14.013 13.321-25.373 23.346-25.373 10.026 0 16.99 9.187 16.99 23.2" fill="#f8bd8c"/><path d="M995.543 1408.16a7.135 7.135 0 01-2.279-.36c-20.16-6.613-33.43-.6-33.985-.347-3.628 1.707-7.994.16-9.716-3.48a7.274 7.274 0 013.37-9.693c.756-.373 18.811-8.907 44.882-.373 3.837 1.253 5.93 5.386 4.673 9.213a7.3 7.3 0 01-6.945 5.04M855.432 1419.747a7.295 7.295 0 01-6.056-3.2c-2.256-3.307-1.443-7.814 1.856-10.094.69-.48 17.239-11.68 44.305-7.186a7.3 7.3 0 016.022 8.4c-.659 3.986-4.448 6.666-8.407 6.013-20.916-3.44-33.133 4.493-33.645 4.827a7.286 7.286 0 01-4.075 1.24M935.823 1477.427h-7.312a1.218 1.218 0 01-1.219-1.214v-27.426a1.218 1.218 0 012.437 0v26.2h6.094c.674 0 1.22.56 1.22 1.226 0 .667-.546 1.214-1.22 1.214M889.512 1442.853c0 5.627-3.639 10.2-8.125 10.2-4.487 0-8.126-4.573-8.126-10.2 0-5.64 3.639-10.213 8.126-10.213 4.486 0 8.125 4.573 8.125 10.213M983.961 1432.64c0 5.64-3.637 10.213-8.125 10.213-4.487 0-8.124-4.573-8.124-10.213 0-5.64 3.637-10.2 8.124-10.2 4.488 0 8.125 4.56 8.125 10.2"/><path d="M906.613 1511.347c2.748 12.533 17.495 20.68 33.824 18.346 14.192-2.026 25.01-11.333 27.034-22.133l-60.858 3.787" fill="#fcfcfc"/><path d="M948.43 1273.68c25.498 51.133-36.054 69.507-59.358 97.173-25.472 30.254-43.076 89.974-41.704 129.734 3.743 108.493 40.428 195.466-31.117 294.76 14.832-60.307-7.72-106.387-26.52-161.107-20.678-60.2-20.327-121.893-13.191-184.413 5.377-47.107 7.13-123.32 42.56-158.894 20.343-20.426 113.087-49.84 129.33-17.253" fill="#0b0635"/><path d="M942.539 1325.347s11.405 20.053 36.942 32.373c36.17 17.467 43.918 74.92 43.918 74.92l14.682-8-28.412-106.92-67.13 7.627" fill="#0b0635"/><path d="M1151.916 2330.88l-18.013-5.907s-2.236-3.173.244-7.253c2.48-4.093 8.381-3.96 11.257-3.667 2.875.307 8.835 2.534 8.835 2.534s7.06-8.067 14.277-11.72c0 0-1.881-9.907 1.465-16.36 0 0-7.401-7.547-6.593-18.68 0 0-.763-1.347-1.883-3.414-.945.427-2.77 1.267-3.95 1.934-1.646.946-1.787 6.306-1.134 9.533.652 3.227 1.372 13.44.35 19.28-1.023 5.84-5.484 9.8-12.14 9.587-6.655-.227-6.872-6.747-8.164-12.534-1.294-5.786-.739-11.213-.274-21.64.464-10.413-2.242-15.626-4.232-25.466-1.99-9.84-1.262-17.734-1.262-17.734.877-8.213 4.14-18.146 5.014-20.693-.961-5.933-.882-11.507 1.004-15.667 3.388-7.453-7.613-61.866-7.613-61.866l55.619 6.293-5.179 61.547s17.407 36.453 23.167 52.826c5.761 16.387 9.956 25.027 9.152 33.16 0 0-8.451 32.747-17.131 39.974-8.899 7.413-28.683 20.426-34.46 20.866-6.233.48-22.785-1.733-22.785-1.733s-3.688-.173-6.436-1.68c0 0-2.667.04-.61-5.52 2.056-5.573 7.766-4.173 21.475-6" fill="#f8bd8c"/><path d="M1097.8 1661.773s77.83-5.573 105.243 103.574c27.413 109.16 24.526 150.08 23.082 219.6-1.442 69.533 79.635 206.786 6.042 295.253 0 0-62.312-31.013-120.027-42.813 0 0-10.092-11-4.317-125.734 5.761-114.706-10.023-449.88-10.023-449.88" fill="#fcfcfc"/><path d="M760.02 2287.227s-23.113 1.426-27.607 1.36c0 0 .332 32.24 13.804 43.213l.319.267 13.484-44.84" fill="#eab186"/><path d="M797.936 2056.227a2.672 2.672 0 01-2.65-2.387c-.111-1.08-2.677-26.72 3.143-53.493 2.982-13.72.942-21.627-2.148-33.614-2.742-10.64-6.157-23.88-7.552-46.306-3.005-48.267 14.928-75.494 15.692-76.627a2.66 2.66 0 013.703-.72 2.66 2.66 0 01.721 3.693c-.273.414-17.669 27.12-14.792 73.334 1.363 21.906 4.707 34.88 7.394 45.293 3.161 12.267 5.444 21.133 2.193 36.08-5.64 25.947-3.075 51.547-3.048 51.8a2.675 2.675 0 01-2.377 2.933c-.094.014-.187.014-.279.014M1099.979 2097.293c-.091 0-.184 0-.278-.013a2.655 2.655 0 01-2.377-2.92c2.18-21.053 3.827-40 1.892-58.707-1.016-9.813-2.23-19.653-3.404-29.173-2.607-21.147-5.303-43.027-5.872-65.227a2.67 2.67 0 012.597-2.733c1.466-.067 2.696 1.133 2.735 2.6.563 21.947 3.123 42.72 5.833 64.707 1.178 9.546 2.395 19.413 3.415 29.28 1.99 19.213.32 38.453-1.892 59.8a2.66 2.66 0 01-2.65 2.386" fill="#ccdde7"/><path d="M972.221 2118.827H811.375a2.67 2.67 0 01-2.667-2.667 2.662 2.662 0 012.667-2.667H972.22a2.662 2.662 0 012.667 2.667 2.67 2.67 0 01-2.667 2.667" fill="#dc4070"/><path d="M3169.546 1261.634v119.3H3037.26v-119.3h132.285" fill="#f8bd8c"/><path d="M3169.546 1271.359v37.091c-9.703 9.804-22.926 17.579-39.59 19.078-35.76 3.21-70.722-23.35-92.695-43.913v-12.309c.097.026.194.064.292.092 16.14 4.803 40.795 9.817 73.638 9.777 23.762-.026 41.943-4.523 55.069-9.777l3.286-.04" fill="#eab186"/><path d="M3013.115 1159.834c1.646 19.932-6.16 36.844-17.404 37.773-11.264.927-21.714-14.478-23.36-34.413-1.646-19.932 6.14-36.845 17.404-37.773 11.264-.928 21.714 14.478 23.36 34.413M3230.67 1163.935c-2.36 19.86-13.368 34.877-24.575 33.54-11.226-1.335-18.386-18.52-16.026-38.378 2.36-19.86 13.368-34.88 24.575-33.542 11.226 1.335 18.407 18.52 16.026 38.38" fill="#f2b588"/><path d="M3210.013 1160.038c0 79.065-48.071 143.157-107.368 143.157-59.296 0-107.368-64.092-107.368-143.157 0-79.063 48.072-143.155 107.368-143.155 59.297 0 107.368 64.092 107.368 143.155" fill="#f8bd8c"/><path d="M3076.25 949.77c-3.192 0-31.953-21.087-69.023 14.062-37.07 35.15-28.553 28.332-38.77 37.707-10.235 9.372-7.666 19.265-21.32 27.952-13.615 8.689-16.184 12.95-10.216 23.175 5.967 10.226 10.122 20.452-3.022 27.27-13.162 6.815-18.28 8.52-11.463 14.484 6.818 5.965 1.077 13.848 16.392 16.404 15.353 2.556 23.662 4.193 26.212 10.725 2.549 6.53 8.309 6.53 15.976 9.085 7.667 2.559 8.951 3.836 11.52 7.671 2.549 3.834 5.306 2.557 5.306 2.557s15.485-37.812 16.278-54.057c.774-16.244 5.892.372 18.016-16.244 12.161-16.618 14.616-15.215 24.946-28.28 10.311-13.062 4.211-4.868 12.653-14.178 8.422-9.308 6.515-78.332 6.515-78.332" fill="#e2b897"/><path d="M3103.502 1202.863c-1.226 0-2.127-.035-2.452-.048a1.266 1.266 0 01-1.207-1.337c.02-.705.632-1.282 1.322-1.218 5.076.237 13.869-.301 15.9-2.738 1.953-2.339 1.015-15.769-.269-24.558-.115-.699.383-1.348 1.073-1.452a1.285 1.285 0 011.456 1.079c.536 3.726 3.103 22.502-.307 26.571-2.72 3.266-11.187 3.7-15.516 3.7" fill="#080305"/><path d="M3067.916 1231.606h70.942s-22.569 37.173-57.423 13.1c-1.194-.826-13.519-13.1-13.519-13.1" fill="#fff"/><path d="M3077.274 1113.132c-4.179.44-8.527.768-12.763 1.112-4.254.369-8.47.701-12.668 1.148-4.16.438-8.3.983-12.404 1.558-4.065.66-8.035 1.42-12.025 2.236l-.246.051a5.19 5.19 0 01-6.126-4.034 5.21 5.21 0 012.628-5.603c4.255-2.291 8.774-3.827 13.311-4.96 4.538-1.08 9.133-1.726 13.709-2.117 4.594-.304 9.151-.395 13.67-.138 4.576.25 9.02.726 13.614 1.762 2.458.552 4.008 2.988 3.441 5.438a4.536 4.536 0 01-3.933 3.526l-.208.021M3128.051 1104.156c4.613-1.038 9.069-1.513 13.623-1.763 4.554-.258 9.108-.166 13.681.139 4.574.39 9.167 1.036 13.702 2.116 4.554 1.132 9.068 2.668 13.33 4.961a5.168 5.168 0 012.09 7.02c-1.094 2.06-3.4 3.065-5.59 2.62l-.253-.055c-3.988-.817-7.955-1.575-12.02-2.236-4.105-.577-8.229-1.12-12.412-1.558-4.202-.445-8.424-.78-12.684-1.149-4.222-.344-8.58-.67-12.744-1.112l-.195-.022c-2.502-.264-4.3-2.503-4.046-5.003a4.57 4.57 0 013.518-3.958M3057.489 1148.432c0 6.412-3.958 11.61-8.835 11.61-4.896 0-8.854-5.198-8.854-11.61 0-6.413 3.958-11.61 8.854-11.61 4.877 0 8.835 5.197 8.835 11.61M3163.308 1148.428c0 6.412-3.959 11.61-8.85 11.61-4.87 0-8.83-5.198-8.83-11.61 0-6.412 3.96-11.609 8.83-11.609 4.891 0 8.85 5.197 8.85 11.61" fill="#080305"/><path d="M3058.049 999.011s2.56 50.195 49.85 62.572c0 0 13.417-1.376 23.635 17.877 10.238 19.252-.64 17.19 11.518 23.377 12.138 6.189 10.858-.686 30.034 7.565 19.177 8.25 12.798 13.923 26.835 22.09 14.077 8.164 41.552 1.975 45.391-4.902 3.84-6.874 10.218-8.938 12.138-15.815 1.92-6.874 0-37.128 0-37.128s-23.016-16.503-30.674-35.753c-7.679-19.253 2.56-27.505-14.057-39.883-16.617-12.375-42.192-23.377-47.291-28.876-5.12-5.503-11.518-33.006-33.254-31.632-21.716 1.376-48.57-.786-58.129-.048-9.618.736-14.717 8.988-15.996 17.926-1.28 8.939 0 42.63 0 42.63" fill="#e2b897"/><path d="M3380.9 2448.294h-245.13c-4.963-64.134-9.304-129.747-9.927-168.826-.146-7.868 0-19.775 0-19.775l-11.59 188.6h-278.486c.228-53 3.032-117.627 10.614-194.186.27-2.614.519-5.254.81-7.88a2492.387 2492.387 0 019.45-80.187 2304.093 2304.093 0 014.216-30.574c1.579-11 3.261-22.199 5.047-33.585a2497.312 2497.312 0 014.071-25.562c.665-4.04 1.35-8.131 2.036-12.237v-.015a2967.68 2967.68 0 013.739-21.773 3410.53 3410.53 0 017.892-43.468h453.495s1.953 7.84 5.027 21.975c1.08 4.866 2.284 10.466 3.572 16.76 0 .039.02.066.02.105.25 1.107.479 2.241.686 3.375a1790.287 1790.287 0 019.201 48.118 1971.16 1971.16 0 017.748 46.974c4.258 27.8 8.35 58.628 11.693 91.36a1710.5 1710.5 0 011.6 16.215c6.002 64.626 8.848 135.612 4.216 204.586" fill="#ff7c90"/><path d="M3291.535 1386.185s99.234 31.08 119.491 49.212c20.257 18.121 89.14 172.88 89.14 254.08 0 81.2 16.2 205.882 0 229.35-16.202 23.464-89.14 139.838-137.743 166.68-48.625 26.85-68.559 24.851-68.559 24.851l-11.886-120.879 52.077-191.215-26.427-288.132-16.093-123.947" fill="#755faa"/><path d="M2981.332 1362.55c10.911-4.068 40.077-12.347 60.489-4.746 20.39 7.598 69.553 15.198 92.972 4.746 23.44-10.455 53.664-11.84 74.843-7.348 21.159 4.508 80.88 16.855 115.646 45.36 34.787 28.52 55.925 566.386 23.814 611.999-11.223 15.933-67.127 70.227-155.64 53.948-70.715-13.015-150.91 43.879-226.354 5.146-58.932-30.267-105.937-30.586-105.937-30.586s-71.068-475.147-31.759-583.48c0 0 4.543-39.92 151.926-95.04" fill="#755faa"/><path d="M3125.835 2262.36h-.097c-1.462-.04-2.613-1.279-2.574-2.747.468-13.745 7.915-23.545 19.183-38.373 8.286-10.92 18.618-24.52 29.925-44.587a2.688 2.688 0 013.645-1.014 2.67 2.67 0 011.014 3.64c-11.482 20.388-21.951 34.136-30.353 45.187-11.015 14.52-17.663 23.28-18.072 35.32a2.683 2.683 0 01-2.67 2.574" fill="#1d1647"/><path d="M2983.226 1369.868s-81.005 49.6-115.943 70.158c-34.957 20.574-57.798 50.64-65.85 68.042-8.054 17.412-26.868 33.24-25.532 44.305 1.336 11.08-30.912 58.547-37.629 98.106-6.717 39.562-18.814 170.895-18.814 175.64 0 4.748 21.504 113.935 21.504 113.935s63.16 75.946 76.594 93.347c13.452 17.413 53.753 45.892 59.134 45.892 5.38 0 38.965-26.905 37.629-53.8-1.354-26.893-10.762-104.439-20.15-117.093-7.376-9.894-16.363-18.827-23.153-32.092a81.983 81.983 0 01-5.088-12.215c-6.716-20.573 12.098-69.614 12.098-69.614s60.488-174.064 57.78-197.798c-2.673-23.734 17.478-107.6 12.097-129.747-5.362-22.16 35.323-97.066 35.323-97.066" fill="#755faa"/><path d="M3012.309 2086.839c-47.244 0-68.641-25.681-69.562-26.8a2.691 2.691 0 01.392-3.76 2.685 2.685 0 013.762.4c.314.388 22.26 26.4 69.856 24.746 41.207-1.427 61.997-6.425 78.692-10.426a445.201 445.201 0 019.994-2.334c30.117-6.625 71.873-14.465 86.746-6.214 1.293.721 1.763 2.348 1.038 3.627a2.653 2.653 0 01-3.625 1.04c-14.813-8.225-66.152 3.042-83.003 6.747-3.253.721-6.486 1.493-9.896 2.307-16.93 4.067-38.014 9.135-79.77 10.587-1.568.053-3.116.08-4.624.08M2878.018 1850.96a2.667 2.667 0 01-2.59-2.12c-6.077-28.733-2.984-54.56 9.207-76.773 11.202-20.426 18.43-41.12 26.09-63.013 4.495-12.84 9.134-26.108 14.6-39.201.575-1.36 2.14-2 3.506-1.426a2.654 2.654 0 011.42 3.48c-5.43 12.947-10.033 26.147-14.492 38.906-7.39 21.146-15.032 43-26.45 63.827-11.56 21.053-14.474 45.652-8.666 73.093.306 1.44-.611 2.867-2.05 3.16-.197.04-.377.067-.575.067M3092.764 1370.773c-20.289 0-54.782-11.32-56.356-11.84a2.669 2.669 0 01-1.69-3.374c.462-1.4 1.978-2.16 3.36-1.693.403.134 40.348 13.24 58.449 11.4 10.211-1.039 17.083-.787 21.613-.613 2.918.106 5.451.2 6.162-.253a2.64 2.64 0 013.666.8 2.658 2.658 0 01-.787 3.68c-2.112 1.359-4.799 1.267-9.252 1.094-4.377-.161-11.018-.401-20.865.599-1.344.146-2.783.2-4.3.2" fill="#1d1647"/><path d="M3781.053 1605.121c-22.8 29.32-58.621 53.199-96.637 54.28-3.617.093-9.801.52-18.062 1.173-60.466 4.786-231.407 22.735-306.924 30.746-22.543 2.387-36.569 3.92-36.639 3.92-9.054.974-15.892-31.999-16.242-36.853-1.12-16.814 4.854-33.133 12.998-47.56 8.285-14.693 26.394-31.773 19.72-50.239-5.904-16.387-28.54-19.813-38.366-34.174-7.07-10.36-5.95-24.627-.373-35.838 8.215-16.588 23.57-30.494 40.186-38.149 14.305-6.585 26.604-14.265 33.021-27.6a44.642 44.642 0 003.384-9.773c4.457-20.065.397-45.346 14.072-62.972 11.412-14.653 39.089-30.135 65.156-59.455a218.79 218.79 0 0112.578-13.033c.957-.91 1.914-1.823 2.917-2.703 21.984-20.167 45.437-32.643 65.156-33.948 24.434-1.629 65.156 4.073 74.094 27.692 8.962 23.621 20.373 20.363 35.029 29.322 14.655 8.96 48.073 16.29 55.658 67.338 4.294 28.772-.047 42.359-.164 52.027-.07 5.573 1.237 9.839 6.371 14.987 1.774 1.799 4.014 3.652 6.815 5.731 24.993 18.48 51.06 33.654 66.252 57.574 15.192 23.88 22.824 78.187 0 107.507" fill="#231347"/><path d="M3781.077 1605.117c-22.8 29.32-58.645 53.2-96.66 54.267-3.618.107-9.802.534-18.04 1.174 2.124-12.054 3.92-26.32 2.894-35.894-2.077-19.547-3.337-10.88-7.655-23.92-4.34-13.027 8.681-33.654 7.585-48.868-1.074-15.173-18.436-24.946-26.067-52.12-7.585-27.147 8.938-44.174 8.938-44.174l49.543-36.265c-.07 5.573 1.237 9.839 6.371 14.987 1.774 1.785 4.014 3.652 6.815 5.734 24.993 18.466 51.06 33.651 66.276 57.571 15.192 23.88 22.8 78.188 0 107.508" fill="#31185e"/><path d="M3597.106 1644.588c-9.269 4.065-20.193 7.852-32.33 10.292h-57.267c-8.386-1.719-17.059-4.294-25.93-7.946l.662-30.92 4.656-73.213.376-5.8.838-13.227 95.71 2.573 1.589 12.48 3.09 24.426 6.774 53.295 1.832 28.04M3653.902 1450.676c-3.231 12.36-14.472 20.121-25.062 17.335-10.59-2.787-16.536-15.053-13.282-27.413 3.23-12.36 14.449-20.121 25.061-17.335 10.568 2.787 16.536 15.055 13.283 27.413" fill="#f8bd8c"/><path d="M3773.298 1674.389l-19.237 449.439-141.904 4.465-272.65 8.6-21.713-469.863 164.45-51.014s39.169 29.36 113.014.533c1.783-.706 9.56.773 20.997 3.613 17.801 4.4 44.376 12.093 70.65 20.001 11.945 8.706 23.96 17.278 47.803 19.839 11.667 1.254 25.372 6.706 38.59 14.387" fill="#fff"/><path d="M3450.917 1481.19s8.692 44.186-7.07 72.425c-15.74 28.253-22.253 29.88-15.74 55.64 6.515 25.814 7.924 19.948 6.515 35-.705 8.081-39.019 29.933-75.197 47.067-22.53 2.386-36.583 3.92-36.647 3.92-9.056.973-15.89-32.001-16.231-36.854-1.132-16.814 4.869-33.134 13.006-47.56 8.286-14.694 26.396-31.773 19.712-50.24-5.895-16.386-28.533-19.812-38.378-34.172-7.069-10.36-5.937-24.629-.363-35.84 8.222-16.588 23.556-30.494 40.172-38.148 14.309-6.586 26.61-14.266 33.038-27.599a45.232 45.232 0 003.396-9.775c4.442-20.066.384-45.346 14.074-62.972 11.383-14.652 39.082-30.134 65.159-59.454a222.2 222.2 0 0112.557-13.032c.961-.912 1.922-1.824 2.905-2.706l9.29 103.633-30.198 100.666" fill="#31185e"/><path d="M3627.924 1431.35c0 70.172-40.108 127.066-89.586 127.066-49.477 0-94.482-53.626-94.482-123.799 0-70.172 45.005-130.318 94.482-130.318 49.478 0 89.586 56.878 89.586 127.05" fill="#f8bd8c"/><path d="M3501.848 1397.442c-2.37-.747-5.515-1.439-8.38-1.932a89.494 89.494 0 00-8.92-1.067c-5.99-.428-12-.228-17.947.533l-.086.012c-3.382.44-6.485-1.96-6.916-5.345-.43-3.307 1.853-6.334 5.106-6.894 6.787-1.133 13.66-1.6 20.511-1.36 3.426.106 6.851.4 10.255.854 3.49.48 6.658 1.012 10.471 2.053 3.663.987 5.839 4.772 4.848 8.454-1.013 3.667-4.805 5.839-8.468 4.839-.086-.026-.15-.039-.215-.067l-.259-.08M3557.874 1384.97c3.848-.947 7.032-1.387 10.526-1.788 3.428-.36 6.856-.586 10.284-.599 6.855-.066 13.689.573 20.456 1.88a6.155 6.155 0 014.887 7.24c-.62 3.28-3.715 5.44-6.988 4.947l-.11-.026c-5.905-.907-11.92-1.254-17.914-.973-3.007.119-5.993.426-8.934.853-2.875.398-6.06 1.026-8.426 1.705l-.243.067c-3.649 1.054-7.475-1.066-8.514-4.72-1.04-3.666 1.062-7.479 4.733-8.52.066-.027.176-.054.243-.067M3496.524 1417.683c0 5.294-3.776 9.601-8.43 9.601-4.634 0-8.41-4.307-8.41-9.601 0-5.305 3.776-9.613 8.41-9.613 4.654 0 8.43 4.308 8.43 9.613M3583.805 1419.31c0 5.307-3.76 9.6-8.421 9.6-4.64 0-8.42-4.293-8.42-9.6 0-5.306 3.78-9.6 8.42-9.6 4.661 0 8.42 4.294 8.42 9.6"/><path d="M3465.67 1434.599c6.817 10.798 4.41 24.573-5.39 30.785-9.8 6.2-23.285 2.467-30.124-8.319-6.838-10.8-4.41-24.588 5.39-30.788 9.8-6.199 23.285-2.48 30.124 8.322" fill="#f8bd8c"/><path d="M3707.985 1434.305c-14.288 12.507-31.465 27.332-33.354 30.171-3.253 4.88-32.148 5.481-27.393-2.052 1.57-2.48 7.85-39.493-14.129-36.225-22.001 3.25-23.64-9.775-29.304-18.734-5.666-8.96-.842-32.588-.023-41.026.819-8.4-11.399-20.882-26.893-15.176-15.471 5.695-47.233 19.548-56.197 13.842-8.941-5.695-1.615-23.614-27.689-19.548-26.05 4.068-26.87-30.135-26.87-30.135l2.799-35.836c22.842-21.763 47.483-35.284 68.073-36.651 24.413-1.63 65.139 4.072 74.103 27.69 8.964 23.622 20.363 20.364 35.015 29.323 14.675 8.96 48.052 16.289 55.651 67.344 6.78 45.278-7.895 52.932 6.211 67.013" fill="#31185e"/><path d="M3772.385 2448.293h-428.247c1.782-65.786 17.034-142.359 32.54-204.587 1.55-6.226 3.101-12.32 4.652-18.212 10.785-41.387 21.06-74.508 26.29-90.761 2.269-7.027 3.565-10.892 3.565-10.892l57.79-3.108 16.454-.893 129.002-6.906 81.812-4.386s.347 6.332 1.55 17.052c2.477 22.348 8.68 63.747 23.422 106.294 5.184 15.066 11.456 30.292 19.024 44.854 21.222 40.931 29.253 113.639 32.146 171.545" fill="#e2b897"/><path d="M3464.586 1615.212a2.135 2.135 0 012.521 2.333c-2.051 21.28-15.107 154.547-18.099 160.547-3.247 6.519-6.517 33.667-7.606 55.387-1.09 21.72-1.09 29.319 0 59.719 1.09 30.414 4.359 62.987 7.606 83.626 3.248 20.629 16.817 93.668 17.629 114.027.833 20.361 1.645 29.44 5.726 47.308 4.06 17.853 10.577 34.947 8.953 47.174-1.623 12.212-170.236 61.894-170.236 61.894s-17.094-11.402-19.53-29.321c-2.458-17.921-13.847-26.88-16.304-45.614-2.436-18.733-8.675-128.653 4.338-181.613 13.034-52.947-35.834-92.041-33.654-100.734 2.18-8.694 1.624-161.533 17.094-176.2 15.491-14.654 54.36-50.494 84.723-53.746 30.363-3.268 41.517-16.293 57.82-26.881 13.847-9 48.826-16.013 59.019-17.906" fill="#c5a2fd"/><path d="M3418.6 1896.184c-.82 0-1.661-.4-2.187-1.146-4.645-6.721-2.774-12-.798-17.587 2.207-6.226 4.708-13.292.462-26-3.804-11.427-9.752-20.427-15.49-29.12-6.621-10.04-12.905-19.52-14.482-31.067-1.345-10.026 2.438-24.039 6.096-37.6 3.93-14.52 7.986-29.547 4.476-36.132-3.573-6.682-11.77-13.122-19.673-19.347-7.881-6.213-15.343-12.081-18.012-18.135-1.682-3.772-1.408-10.959 19.967-29.6 11.182-9.733 23.099-18.2 23.225-18.279a2.661 2.661 0 113.069 4.347c-21.943 15.547-43.823 35.865-41.385 41.374 2.144 4.838 9.08 10.305 16.436 16.106 8.344 6.56 16.962 13.36 21.06 21.026 4.52 8.454.358 23.787-4.014 40.027-3.531 13.053-7.167 26.534-5.948 35.494 1.408 10.347 7.083 18.92 13.64 28.839 5.654 8.573 12.065 18.294 16.1 30.388 4.814 14.427 1.745 23.12-.504 29.452-1.829 5.173-2.942 8.307.168 12.773.82 1.215.526 2.882-.672 3.708-.463.32-.988.479-1.535.479" fill="#9e4aff"/><path d="M3263.01 1715.404c-4.346 9.199-58.93 65.239-64.532 106.051-5.562 40.815-25.13 56.12-23.482 107.133 1.628 51.027-4.902 68.026 17.92 93.534 22.802 25.507 22.802 47.612 39.095 79.932 16.272 32.308-1.504 47.614 31 68.028 32.503 20.398 45.562-88.44 69.97-108.84 24.45-20.413 9.784-17.467 0-51.254-9.763-33.786-50.485-66.094-52.112-78-1.628-11.905 10.299-27.067 13.038-36.453 2.183-7.574 22.802-184.519 26.056-206.731 3.255-22.215-17.178-8.149-17.178-8.149l-39.775 34.749" fill="#c5a2fd"/><path d="M3340.298 2025.424h.02zm-32.891 90.908a2.51 2.51 0 01-1.028-.2 2.634 2.634 0 01-1.44-3.467c12.006-29.48 14.658-32.787 19.057-38.28 1.645-2.066 3.536-4.414 6.353-8.827 4.481-6.947 7.38-10.174 9.312-12.293 2.426-2.667 3.063-3.386 4.03-8.68 1.397-7.814-5.407-14.2-7.073-15.627-1.52-.627-2.055-3.026-5.879-23.641-3.145-16.812-16.548-45.933-32.645-54.612-7.853-4.227-16.898-10.361-17.021-20.268-.062-5.373 1.85-10.266 3.7-15.013l.473-1.2c9.395-24.334 13.486-50.6 16.26-73.081 1.152-9.333 1.42-18.839 1.686-28.038.268-9.134.514-18.588 1.666-27.962a2.66 2.66 0 012.96-2.333c1.46.187 2.508 1.507 2.323 2.975-1.11 9.133-1.357 18.452-1.624 27.478-.247 9.321-.535 18.96-1.727 28.534-2.816 22.8-6.99 49.467-16.59 74.347l-.452 1.213c-1.747 4.467-3.392 8.681-3.33 13.015.082 7.08 7.215 11.88 14.184 15.64 17.782 9.573 31.967 40.026 35.359 58.333 2.775 14.852 3.844 19.307 4.193 20.6 2.406 2.08 10.67 10.08 8.778 20.586-1.172 6.533-2.405 8.108-5.304 11.306-1.932 2.122-4.563 5.029-8.777 11.6-2.981 4.64-4.955 7.107-6.702 9.28-4.091 5.121-6.558 8.2-18.296 36.96a2.632 2.632 0 01-2.446 1.655" fill="#9e4aff"/><path d="M3485.449 2122.519a2.663 2.663 0 01-2.659-2.534 2.657 2.657 0 012.503-2.801l153.44-8.318c1.452-.08 2.748 1.039 2.815 2.518a2.657 2.657 0 01-2.502 2.802l-153.44 8.32c-.068 0-.112.013-.157.013" fill="#b08174"/><path d="M3802.863 1990.68c13.024 52.96 6.783 162.88 4.334 181.613-2.426 18.734-13.848 27.693-16.298 45.613-1.978 14.562-13.636 24.813-17.945 28.148a3.78 3.78 0 01-3.415.638c-18.205-5.412-166.882-49.892-168.413-61.36-1.625-12.225 4.899-29.332 8.973-47.186.8-3.587 1.507-6.813 2.072-9.854 2.332-12.093 2.968-21.172 3.627-37.439.825-20.36 14.366-93.386 17.64-114.026 3.25-20.64 6.5-53.213 7.607-83.613 1.083-30.414 1.083-38.028 0-59.735-1.107-21.72-4.357-48.865-7.607-55.387-2.92-5.812-14.696-130.653-17.192-157.174a2.733 2.733 0 01.023-.758 3.805 3.805 0 014.451-3.36c12.058 2.013 43.17 7.865 56.17 16.32 3.485 2.28 6.758 4.665 10.032 7.04 11.94 8.706 23.951 17.279 47.808 19.839 11.658 1.252 25.365 6.707 38.577 14.387 19.853 11.533 38.647 28.08 47.997 42.973 17.498 27.84 10.833 67.867 12.223 99.027 1.012 23.094-2.638 51.028 2.99 73.56 2.167 8.694-46.677 47.775-33.654 100.734" fill="#c5a2fd"/><path d="M3654.95 1898.2a2.628 2.628 0 01-1.53-.468c-1.21-.84-1.529-2.506-.685-3.72 3.104-4.466 2.009-7.586.16-12.76-2.236-6.346-5.294-15.028-.48-29.467 4.017-12.093 10.453-21.813 16.09-30.387 6.573-9.92 12.232-18.492 13.624-28.84 1.233-8.959-2.396-22.44-5.933-35.48-4.382-16.24-8.513-31.587-4.04-40.026 4.108-7.68 12.735-14.48 21.088-21.04 7.348-5.787 14.286-11.266 16.431-16.107 2.556-5.774-17.139-27.08-36.857-43.507a2.67 2.67 0 01-.342-3.76c.936-1.132 2.624-1.279 3.766-.347 10.315 8.628 43.657 37.68 38.317 49.773-2.67 6.055-10.133 11.92-18.03 18.134-7.918 6.228-16.088 12.668-19.648 19.36-3.515 6.586.547 21.6 4.473 36.121 3.651 13.559 7.44 27.573 6.07 37.612-1.575 11.548-7.828 21.014-14.469 31.054-5.728 8.706-11.684 17.707-15.496 29.12-4.222 12.707-1.734 19.775.48 26 1.962 5.6 3.834 10.88-.822 17.587a2.63 2.63 0 01-2.168 1.147" fill="#9e4aff"/><path d="M3818.775 1715.4c4.344 9.198 58.94 65.239 64.53 106.052 5.568 40.814 25.127 56.12 23.495 107.133-1.632 51.027 4.896 68.027-17.927 93.535-22.798 25.505-22.798 47.612-39.093 79.933-16.27 32.306 1.512 47.612-31.005 68.028-32.518 20.398-45.549-88.44-69.979-108.842-24.43-20.412-9.767-17.465 0-51.252 9.792-33.787 50.492-66.094 52.124-78.002 1.632-11.905-10.319-27.065-13.03-36.453-2.185-7.574-22.799-184.519-26.063-206.732-3.24-22.215 17.183-8.147 17.183-8.147l39.765 34.747" fill="#c5a2fd"/><path d="M3735.42 2147.04a2.692 2.692 0 01-2.382-1.453c-.046-.095-4.926-9.52-16.095-19.788-1.85-1.692-3.653-3.226-5.434-4.72-9.435-7.973-17.598-14.852-14.638-34.12 1.688-10.933 5.087-15.826 8.695-21.013 3.677-5.319 7.515-10.827 10.568-24.226 6.151-27.014 45.995-131.68 47.683-136.12.509-1.374 2.058-2.066 3.445-1.548a2.677 2.677 0 011.527 3.455c-.393 1.08-41.37 108.746-47.452 135.386-3.284 14.413-7.585 20.613-11.4 26.094-3.377 4.865-6.29 9.067-7.794 18.786-2.497 16.308 3.585 21.453 12.811 29.239 1.804 1.521 3.654 3.094 5.574 4.854 11.955 10.975 17.066 20.881 17.274 21.307.67 1.306.138 2.92-1.18 3.586-.393.188-.786.28-1.202.28" fill="#9e4aff"/><path d="M3546.18 2438.88a2.667 2.667 0 01-2.678-2.668v-158.106l-34.509-28.828a2.656 2.656 0 01-.326-3.76 2.65 2.65 0 013.744-.333l35.467 29.64c.588.507.958 1.254.958 2.04v159.347a2.662 2.662 0 01-2.656 2.667" fill="#b08174"/><path d="M3588.5 1563.252c-6.98 9.493-17.459 17.627-31.263 18.986-28.157 2.774-55.654-23.359-70.317-39.439l.375-5.8a58.057 58.057 0 005.041 1.853c11.316 3.72 28.642 7.587 51.714 7.573 16.71-.026 29.457-3.507 38.681-7.573l2.664-.026 3.104 24.426" fill="#eab186"/><path d="M3534.668 1457.577h-7.31c-.673 0-1.215-.56-1.215-1.228v-27.413c0-.679.542-1.225 1.215-1.225.672 0 1.214.546 1.214 1.225v26.2h6.096c.673 0 1.215.547 1.215 1.213 0 .668-.542 1.228-1.215 1.228"/><path d="M3529.934 1503.615c-5.547 0-11.335-1-16.992-3.08a1.34 1.34 0 01-.808-1.705c.262-.694 1.027-1.055 1.704-.786 16.773 6.146 34.66 2.345 43.483-9.254a1.361 1.361 0 011.878-.253c.59.452.7 1.293.262 1.88-6.53 8.546-17.515 13.198-29.527 13.198" fill="#1a1a1a"/><path d="M3443.864 1461.735c0 1.08-.887 1.958-1.965 1.958a1.964 1.964 0 01-1.944-1.958c0-1.067.888-1.948 1.944-1.948 1.078 0 1.965.88 1.965 1.948M3632.618 1462.403c0 1.08-.87 1.96-1.939 1.96a1.954 1.954 0 110-3.907c1.07.001 1.939.881 1.939 1.947M3436.127 1456.109c0 .8-.654 1.467-1.476 1.467a1.468 1.468 0 010-2.935c.822 0 1.476.654 1.476 1.468"/><path d="M2850.674 1585.215l-46.083 54.84-14.655 17.428-130.1 154.865 7.643-215.919c17.786-1.093 31.62-15.813 31.62-33.613v-72.533l92.41 3.373c1.225 8.306 2.502 16.639 3.743 24.96l.63 4.24c.052.199.052.4.105.613.717 4.773 1.137 10.413 1.679 16.32.105 1.213.21 2.427.35 3.654 2.133 21.333 6.733 44.612 31.917 43.038l20.741-1.266" fill="#f8bd8c"/><path d="M2797.688 1539.784c-6.213 10.852-16.374 20.773-30.26 22.294-26.517 2.892-52.366-25.667-65.118-41.468-1.373-1.68-2.352-3.227-3.193-4.56v-1.84c2.163 1.24 5.2 2.854 9.715 4.48 10.23 3.732 25.866 7.586 46.685 7.56 15.07-.014 26.604-3.493 34.911-7.56l4.84-.08c.206 1.413.412 2.827.635 4.24.035.2.052.4.086.613.721 4.774 1.15 10.414 1.7 16.32" fill="#eab186"/><path d="M2839.08 1471.931s110.285-11.947 65.394-149.981c-44.874-138.03-182.915-105.488-182.915-105.488s-102.106 41.619-114.465 129.095c-12.34 87.493 61.702 111.494 61.702 111.494l170.285 14.88"/><path d="M2790.962 1223.548s31.655-53.187 19.464-66.53c-12.191-13.345-27.551-28.845-58.375-23.306-30.84 5.542-37.387 36.1-34.443 46.315 2.961 10.212 10.563 30.537 20.607 47.027 10.044 16.49 52.747-3.506 52.747-3.506"/><path d="M2666.155 1410.292c-6.326 66.227 29.72 123.842 80.466 128.667 50.765 4.84 97.026-44.919 103.335-111.146 6.326-66.24-29.72-123.845-80.467-128.681-50.765-4.838-97.026 44.934-103.334 111.16" fill="#f8bd8c"/><path d="M2742.874 1282.678s38.15 76.871 112.206 118.391c74.073 41.52 7.296-105.485 7.296-105.485l-119.502-12.906"/><path d="M2638.08 1402.929c0 15.119 13.112 29.72 23.937 29.72 10.825 0 19.594-12.253 19.594-27.374 0-15.12-14.379-27.374-25.204-27.374-10.809 0-18.327 9.907-18.327 25.028M2868.583 1410.615c0 15.12-13.111 29.72-23.935 29.72-10.805 0-19.587-12.266-19.587-27.387 0-15.106 14.378-27.373 25.184-27.373 10.823 0 18.338 9.92 18.338 25.04" fill="#f8bd8c"/><path d="M2711.72 1400.068c0 5.854 3.631 10.587 8.083 10.587 4.468 0 8.1-4.733 8.1-10.587 0-5.852-3.632-10.587-8.1-10.587-4.452 0-8.084 4.735-8.084 10.587M2793.72 1405.283c0 5.854 3.637 10.588 8.12 10.588 4.464 0 8.084-4.734 8.084-10.588 0-5.853-3.62-10.598-8.085-10.598-4.482 0-8.12 4.745-8.12 10.598M2733.332 1375.561a7.795 7.795 0 01-2.017-.04c-18.103-2.68-29.197 2.868-29.667 3.108-3.026 1.56-6.959.892-8.74-1.494-1.8-2.385-.841-5.572 2.15-7.172.64-.335 15.7-8.134 39.114-4.695 3.446.508 5.597 3.227 4.807 6.054-.639 2.266-2.975 3.934-5.647 4.24M2825.538 1381.178a8.11 8.11 0 01-1.912-.653c-16.43-8.067-28.669-6.174-29.173-6.08-3.373.56-6.92-1.267-7.893-4.094-.974-2.813.904-5.574 4.26-6.174.712-.12 17.42-2.959 38.665 7.453 3.112 1.548 4.346 4.774 2.73 7.227-1.287 1.974-4.017 2.841-6.677 2.321"/><path d="M2760.76 1442.357c-1.392 0-2.75-.427-3.854-1.253-3.43-2.506-3.6-4.267-3.209-8.32l1.664-17.028c.051-.64.628-1.093 1.257-1.039a1.146 1.146 0 011.035 1.267l-1.664 17.026c-.34 3.627-.203 4.413 2.276 6.24.95.694 2.19.96 3.412.708l4.313-.907a1.17 1.17 0 011.375.893 1.161 1.161 0 01-.883 1.373l-4.346.907a6.745 6.745 0 01-1.376.133" fill="#080305"/><path d="M2724.5 1471.969c2.035 13.068 16.69 22.374 33.636 21.012 14.723-1.185 26.437-10.065 29.207-21.052l-62.843.04" fill="#fff"/><path d="M2660.803 1423.232c1.355.772 1.813 2.492 1.045 3.853-.784 1.346-2.516 1.813-3.855 1.028a2.83 2.83 0 01-1.045-3.856c.784-1.346 2.515-1.811 3.855-1.025M2851.527 1428.706a2.835 2.835 0 011.05 3.867 2.828 2.828 0 01-3.85 1.027 2.836 2.836 0 01-1.051-3.854 2.83 2.83 0 013.851-1.04" fill="#080305"/><path d="M2917.39 2223.4l-77.113 33.348-44.478-46.8 96.948-69.974 41.275 76.893-16.632 6.534M2480.609 2408.774l17.4-5.707s2.166-3.066-.23-7.013-8.109-3.827-10.873-3.534c-2.796.281-8.555 2.44-8.555 2.44s-6.819-7.8-13.791-11.332c0 0 1.827-9.574-1.413-15.814 0 0 7.141-7.294 6.373-18.053 0 0 .722-1.294 1.813-3.293.921.4 2.672 1.213 3.824 1.866 1.582.907 1.72 6.094 1.09 9.2-.63 3.12-1.32 13-.338 18.64.998 5.654 5.299 9.48 11.734 9.266 6.435-.213 6.65-6.52 7.894-12.106 1.244-5.6.706-10.84.26-20.92-.445-10.067 2.166-15.106 4.086-24.614 1.935-9.519 1.229-17.146 1.229-17.146-.845-7.946-3.993-17.534-4.853-20 .936-5.733.86-11.133-.968-15.146-3.271-7.2 7.356-59.8 7.356-59.8l-53.753 6.079 5.007 59.494s-16.832 35.24-22.407 51.067c-5.56 15.84-9.614 24.185-8.846 32.053 0 0 8.17 31.653 16.556 38.653 8.615 7.16 27.736 19.734 33.326 20.16 6.02.466 22.024-1.68 22.024-1.68s3.563-.16 6.22-1.614c0 0 2.58.04.583-5.346-1.996-5.387-7.51-4.04-20.748-5.8" fill="#f8bd8c"/><path d="M2573.911 1635.096s-46.507 25.413-53.23 61.292c-6.74 35.867-29.172 86.521-41.52 107.627-12.348 21.107-28.057 64.373-30.303 79.147-2.247 14.773-33.666 226.866-24.696 277.519 8.986 50.654 2.024 90.04 19.342 97.08 17.319 7.04 72.684 0 72.684 0l80.793-492.44-23.07-130.225" fill="#ababab"/><path d="M2910.658 2448.292h-446.205c1-8.612 2.107-17.519 3.303-26.653a1842.445 1842.445 0 014.59-32.572c.964-6.56 2-13.2 3.089-19.96v-.015a1785.008 1785.008 0 0117.91-95.386v-.014c.464-2.146.946-4.293 1.41-6.453 0-.013 0-.027.018-.04.518-2.32 1.036-4.614 1.554-6.946.036-.187.071-.36.125-.546a1492.189 1492.189 0 017.214-30.614c1.482-6.068 3.018-12.16 4.607-18.268 6.41-24.813 13.554-49.972 21.553-75.293v-.012c1.411-4.468 2.857-8.96 4.322-13.454 0 0 1.321-1.267 4.839-3.2 7.839-4.294 26.535-11.801 65.802-15.601v-.012c.054 0 .125-.013.197-.013 19.16-1.855 43.213-2.8 73.266-2.08 33.32.8 73.999 3.666 123.587 9.692 0 0 2.732 9.507 7.41 24.68 4.268 13.773 10.108 32.24 16.947 52.48 6.321 18.64 13.464 38.788 21 58.215.839 2.158 1.66 4.305 2.517 6.439 9.803 24.814 20.178 47.986 30.07 64.68 14.465 24.388 24.554 76.76 30.875 130.946" fill="#190444"/><path d="M2534.14 1979.561c1.12-11.225 7.261-86.412 7.261-86.412s3.959-106.598.232-143.64c-2.375-23.254 13.884-69.08 26.262-99.959a550.918 550.918 0 016.025-14.454l24.138-9.974 82.727-34.199s-16.472 124.16-7.493 191.493c0 0 131.66-137.626 158.598-200.466 0 0 89.774 16.427 112.213 13.467 22.439-3.015 73.342 10.453 94.255 167.56 20.971 157.106 88.307 239.384 91.3 267.852 2.974 28.413 17.959 59.826-17.94 95.732-35.917 35.921-95.799 91.267-103.253 101.774-7.492 10.453-80.795 28.414-80.795 28.414l-76.18-138.268c-2.472-4.493-.56-10.132 4.152-12.16 12.783-5.519 35.724-15.492 42.077-18.665 8.999-4.494 66.583-34.388 66.583-34.388s-45.264-61.36-50.864-126.453c-2.51-29.08-3.669-52.066-4.171-68.678-.676 55.8-7.802 172.412-53.413 232.518l-23.964 44.893h-302.075s-1.506-9.44 0-17.76c2.703-15.012 3.206-127.013 4.326-138.227" fill="#ababab"/><path d="M2454.695 2261.281c-.232 0-.48-.026-.711-.093l-16.233-4.453c-3.818-1.04-8.471-5.533-10.651-31.293-1.113-12.867-1.067-25.573-1.067-26.974l-6.137-72.747a1.616 1.616 0 010-.386l3.896-62.586c.139-1.36 13.79-123.12 18.118-150.187 4.514-28.332 11.409-61.96 27.981-96.547 16.48-34.332 44.214-103.625 44.492-104.332a2.66 2.66 0 013.463-1.479 2.661 2.661 0 011.484 3.466c-.278.694-28.074 70.159-44.615 104.653-16.295 33.974-23.066 67.12-27.534 95.08-4.328 26.946-17.932 148.572-18.087 149.8l-3.865 62.265 6.138 72.667v.253c-.248 27.614 3.339 51.987 7.791 53.214l16.232 4.44a2.656 2.656 0 011.871 3.279 2.655 2.655 0 01-2.566 1.96M2525.338 2085.572a2.66 2.66 0 01-1.959-.867c-.87-.933-8.44-10.907-9.528-71.933-1.104-61.081 11.253-106.627 14.549-111.295a2.682 2.682 0 013.73-.626 2.668 2.668 0 01.637 3.694c-2.253 3.627-14.673 47.306-13.585 108.12 1.042 57.734 7.772 67.946 8.192 68.533a2.631 2.631 0 01-.233 3.667 2.63 2.63 0 01-1.803.707M2673.29 1785.084c-.296 0-.592-.054-.888-.146a2.683 2.683 0 01-1.756-2.228c-.104-.826-9.183-84.626 6.957-190.92a2.674 2.674 0 013.043-2.24 2.699 2.699 0 012.244 3.04c-13.67 89.907-9.166 163.494-7.479 183.893 22.106-22.413 128.892-132.652 153.99-195.533.556-1.36 2.103-2.026 3.46-1.48a2.672 2.672 0 011.496 3.468c-28.297 70.906-153.867 196.08-159.19 201.372a2.645 2.645 0 01-1.878.774M3008.488 2230.999a2.673 2.673 0 01-1.716-.627c-1.119-.947-1.273-2.64-.328-3.76.25-.305 26.594-31.466 76.233-75.333l1.736-1.533c17.183-15.147 38.531-33.986 45.204-56.307 8.292-27.747 2.333-60.56-17.704-97.56-16.604-30.627-29.583-63.665-42.118-95.613-1.33-3.44-2.68-6.867-4.03-10.294a2.664 2.664 0 011.504-3.454c1.369-.532 2.93.135 3.452 1.508 1.35 3.427 2.7 6.854 4.05 10.292 12.477 31.788 25.398 64.682 41.828 95.027 20.732 38.28 26.845 72.467 18.128 101.628-7.116 23.774-29.1 43.173-46.785 58.772l-1.716 1.522c-49.35 43.586-75.443 74.467-75.694 74.773a2.713 2.713 0 01-2.044.959M2897.196 1987.389c-.161 0-.34-.027-.5-.054a2.676 2.676 0 01-2.127-3.12c.018-.08 1.573-8.306 4.86-28.733 3.305-20.334 7.128-96.706 7.182-97.48.053-1.466 1.357-2.6 2.786-2.52a2.656 2.656 0 012.537 2.787c-.16 3.16-3.894 77.44-7.235 98.067-3.305 20.52-4.877 28.8-4.895 28.88a2.656 2.656 0 01-2.608 2.173" fill="#8e8d8e"/><path d="M2735.92 1620.948c-3.93 0-7.706-.493-11.343-1.493-24.894-6.839-33.203-35.478-33.272-35.773l1.293-.345c.069.28 8.171 28.212 32.341 34.84 22.204 6.08 50.529-7.095 84.18-39.174l.914.974c-28.566 27.24-53.442 40.971-74.112 40.971" fill="#080305"/><path d="M2010.96 2249.013s27.96 8.32 33.493 9.52c0 0-9.573 39.467-29.226 49.107l-.467.227-3.8-58.854" fill="#eab186"/><path d="M1986.813 1618.16s7.28-5.587 16.64 2.627c49.814 43.813 45.014 120.04 44.334 139.586-.694 19.547 17.2 90.907 26.613 117.68 9.413 26.76 20.813 42.614 27.773 89.214 6.974 46.6-.013 138.72.774 150.08.8 11.36 9.92 66.493 14.693 81.613 3.56 11.307-.56 45.64-12.973 51.16-12.414 5.52-20.467 12.707-66.147 7.053-45.667-5.653-33.973-20.8-34.72-41.893-.747-21.08-7.373-39.907-7.573-49.293-.2-9.4-2.027-27.12-1.934-50.694.08-23.573 1.72-14.413-2.906-37.24-4.614-22.826-37.72-138.28-25.72-166.706 11.986-28.427-32.947-123.72-32.214-130.907.734-7.187-10.84-72.493-10.84-72.493s9.854-30.734 25.52-52.68c15.667-21.947 36.414-34.094 38.68-37.107" fill="#1a1a1a"/><path d="M1815.693 2018.187v86.88l-1.866 87.773-.294 13.427c.014.013 0 .013 0 .026l-5.16 242h-209.08l20.4-246.186 2.254-27.307.626-7.493 1.12-13.4v-.014l4.347-52.48 4.173-50.48 2.72-32.746h180.76" fill="#ababab"/><path d="M2028.36 2448.293h-209.093l-5.254-246.373c0-.013.014-.027 0-.04l-.186-9.04-1.88-87.773v-86.88h180.773l10.6 127.973v.013l1.48 17.947.173 1.973v.067l.96 11.56v.013l5.934 71.547.08.893 4.693 56.72 11.72 141.4" fill="#ababab"/><path d="M1609.427 1520.96s-11.814-74.04 17.08-112.067c28.88-38.04 19.693-70.64 19.693-88.293 0-17.667 5.253-73.36 30.2-93.733 24.947-20.374 35.453-65.2 116.867-48.894 0 0 21-12.226 74.84-5.44 53.84 6.8 76.16 77.427 78.786 92.374 2.627 14.933 7.88 46.186 21.014 61.12 13.12 14.946 26.253 48.906 17.066 82.866-9.2 33.96-9.613 40.747 3.067 71.987 12.693 31.24 6.12 40.08 6.12 40.08s-153.627 63.16-384.733 0" fill="#d1d1d3"/><path d="M1874 1578h-128.173l13.053-89.44.88-5.987 1.827-12.56h96.653l2.067 14.107 3.773 25.84L1874 1578" fill="#f8bd8c"/><path d="M1864.08 1509.96c-7.28 9.533-18.053 17.587-32.12 18.947-29.187 2.853-57.68-23.72-73.08-40.347l.88-5.987c1.32.507 2.8 1.04 4.467 1.574 11.826 3.84 29.893 7.826 53.946 7.813 17.427-.04 30.747-3.627 40.387-7.813l1.747-.027 3.773 25.84" fill="#eab186"/><path d="M1914.893 1354.707c0 81.693-48.946 147.906-109.333 147.906s-109.333-66.213-109.333-147.906c0-81.68 48.946-147.907 109.333-147.907s109.333 66.227 109.333 147.907" fill="#f8bd8c"/><path d="M1729.72 1380.587c5.653 15.333.76 31.493-10.933 36.106-11.68 4.614-25.747-4.08-31.387-19.413-5.653-15.333-.76-31.507 10.933-36.12 11.68-4.6 25.747 4.093 31.387 19.427M1896.107 1380.587c-5.64 15.346-.747 31.506 10.946 36.106 11.694 4.614 25.747-4.093 31.387-19.426 5.64-15.334.747-31.507-10.947-36.107-11.693-4.6-25.746 4.093-31.386 19.427" fill="#f8bd8c"/><path d="M1730.107 1325.8c-2.307 0-4.494-1.4-5.44-3.72-1.28-3.107.12-6.707 3.12-8.027 28.4-12.453 49.973-.84 50.88-.36 2.893 1.6 3.973 5.307 2.44 8.28-1.534 2.974-5.08 4.107-7.974 2.534-.826-.44-17.8-9.254-40.72.813-.76.32-1.546.48-2.306.48M1835.027 1325.8c-2.294 0-4.48-1.4-5.44-3.72-1.28-3.107.133-6.707 3.133-8.027 28.4-12.453 49.973-.84 50.88-.36 2.88 1.6 3.973 5.307 2.44 8.28-1.533 2.974-5.067 4.107-7.973 2.534-.827-.44-17.814-9.254-40.734.813-.746.32-1.533.48-2.306.48M1761.587 1357.587c0 6.96-4.32 12.613-9.64 12.613-5.334 0-9.654-5.653-9.654-12.613 0-6.974 4.32-12.627 9.654-12.627 5.32 0 9.64 5.653 9.64 12.627M1867.893 1357.587c0 6.96-4.32 12.613-9.653 12.613-5.32 0-9.64-5.653-9.64-12.613 0-6.974 4.32-12.627 9.64-12.627 5.333 0 9.653 5.653 9.653 12.627" fill="#1a1a1a"/><path d="M1793.267 1220.08s-64.347 91.893-73.534 139.68c-9.2 47.773-61.72 32.827-66.973 34.187-5.253 1.36 31.52-152.134 31.52-152.134l108.987-47.546v25.813M1793.267 1188.333v31.747c14.386 30.133 32.48 58.44 54.133 83.533 22.947 26.587 51.587 49.774 79.613 70.347 4.774 3.493 11.747 7.293 16.134 11.2-3.934-23.227-11.134-46.4-15.534-69.56-3.946-20.813-6.493-42.947-12.893-63.6-1.973-3.053-121.453-63.667-121.453-63.667" fill="#d1d1d3"/><path d="M1738.4 1515.653s-5.947 11.68-5.947 22.76c0 11.067 9.507 40.587-15.466 41.827-24.974 1.227-106.947 55.36-128.4 71.347-21.44 16-15.494 50.44-15.494 50.44s44 445.653 51.134 453.026c7.133 7.387 109.706-98.72 148.066-94.106 38.347 4.613 26.16 13.226 41.614 12 15.466-1.24 21.413-13.534 26.173-12.92 4.747.613 20.8 3.693 28.533 9.226 7.734 5.534 37.467-3.08 57.68 15.374 20.214 18.453 101.08 79.973 101.08 79.973s10.707-87.347-7.133-114.413c-17.84-27.067 7.133-265.734 0-274.347s-13.08-152.547-13.08-152.547-75.213-40.293-99.293-41.213c-24.094-.92-17.84-59.053-17.84-59.053l-151.627-7.374M1805.533 1456.747c-5.573 0-11.36-1-17.013-3.08a1.33 1.33 0 01-.8-1.707 1.345 1.345 0 011.72-.8c16.76 6.16 34.64 2.36 43.48-9.24a1.335 1.335 0 011.867-.253c.586.453.693 1.28.253 1.866-6.52 8.56-17.507 13.214-29.507 13.214M1909.053 1455.56c-.28 0-.546 0-.826-.013-6.814-.267-12.654-3.76-16.027-9.574a.995.995 0 01.36-1.36c.48-.28 1.093-.12 1.373.36 3.014 5.214 8.267 8.334 14.374 8.574 6.4.28 12.546-2.787 16.106-7.934 5.4-7.8 6.227-19.36 1.974-27.48-2.934-5.6-7.867-8.68-13.907-8.68-.56 0-1-.453-1-1 0-.56.44-1 1-1 6.813 0 12.387 3.467 15.68 9.747 4.587 8.747 3.693 21.173-2.093 29.56-3.8 5.48-10.254 8.8-17.014 8.8M1701.747 1455.56c-6.76 0-13.214-3.32-17.014-8.8-5.053-7.32-5.466-17.507-1.04-25.96 3.934-7.507 10.96-11.987 18.8-11.987.56 0 1 .44 1 1 0 .547-.44 1-1 1-7.186 0-13.386 3.974-17.026 10.907-4.094 7.813-3.734 17.187.906 23.893 3.56 5.147 9.747 8.214 16.107 7.934 6.12-.24 11.36-3.36 14.387-8.574a.99.99 0 011.36-.36 1 1 0 01.373 1.36c-3.373 5.814-9.227 9.307-16.04 9.574-.267.013-.547.013-.813.013M1806.253 1401.84h-1.6c-5.306 0-9.6-4.44-9.6-9.933v-28.974c0-.906.707-1.653 1.6-1.653.88 0 1.6.747 1.6 1.653v27.32c0 4.574 3.574 8.28 8 8.28.88 0 1.6.747 1.6 1.654 0 .92-.72 1.653-1.6 1.653" fill="#1a1a1a"/><path d="M1755.933 2131.013l-57.546-34.96 4.04-11.76c2.88-4.093 6.093-8.866 2.386-12.386-3.84-3.614-10.013-4.44-14.88-1.96l-64.32 32.706-45.493 37.214c29.547 29.133 51.387 31.373 64.68 27.96 1.4.613 2.773 1.24 4.2 1.8l49.36 19.026c4.453 2.36 10.24 1.24 13.187-2.56 2.133-2.746 3.44-7.413-5.774-13l9.214 5.587c4.733 2.507 10.853 1.24 13.853-2.84 2.787-3.6.853-9-4.44-13.013l7.147 3.506c5.16 2.72 11.973 1.107 14.786-3.773 2.454-4.227.534-9.427-3.906-12.12l-10.174-6.147 11.827 1.307c5.68 2.56 13.467 3.507 16.253-1.773 2.387-4.547.28-9.96-4.4-12.814" fill="#f8bd8c"/><path d="M1588.587 1651.587s-125.534 118.893-137.254 136.84c-11.026 16.893-18.386 20.973-26.066 26.986-7.68 6-5.307 10.88-31.454 54.16-19.506 32.28-31.173 85.814-17.76 122.814 13.88 38.28 50.84 64.4 85.107 83.053 37.133 20.213 44.213 26.76 73.853 44.787 29.627 18.04 37.4 21.466 53.574 38.76 9.666 10.333 32.653 15.253 46.493 19.746 6.093 1.987 13.56-4.84 15.36-11.186l26.867-91.174s-23.214-57.36-69.667-80.64c-26.493-13.266-57.44-27.16-72.573-40.52-12.294-10.84 32.186-33.906 41.413-41.853 7.6-6.547 36.973-32.973 42.2-34.773 5.24-1.8 20.92-77.08 20.92-78.214 0-1.133-51.013-148.786-51.013-148.786" fill="#1a1a1a"/><path d="M1806.947 2363.427h-.067a2.666 2.666 0 01-2.6-2.734c.16-5.986 4.013-146.786 7.747-163.173 4.24-18.64 38-53.773 39.426-55.267a2.685 2.685 0 013.774-.066 2.66 2.66 0 01.066 3.773c-.333.36-34.146 35.547-38.066 52.733-3.614 15.894-7.574 160.68-7.614 162.134a2.67 2.67 0 01-2.666 2.6" fill="#999"/><path d="M1595.707 1900.6a2.67 2.67 0 01-2.094-1.013c-.92-1.16-.72-2.84.44-3.747 15.694-12.427 29.667-27.573 41.534-44.987 2.04-3 3.986-6.533 6.053-10.28 4.867-8.786 9.88-17.88 17.28-22.44a2.662 2.662 0 013.667.867 2.678 2.678 0 01-.867 3.68c-6.2 3.827-10.88 12.28-15.413 20.467-2.12 3.853-4.134 7.506-6.32 10.706-12.16 17.867-26.507 33.4-42.627 46.16a2.695 2.695 0 01-1.653.587M1676.8 2044.707a2.671 2.671 0 01-2.4-1.494c-.08-.173-8.16-16.44-25.853-24.013-19.134-8.187-24.667-13.6-24.894-13.827a2.648 2.648 0 010-3.773 2.656 2.656 0 013.76 0c.04.04 5.307 5.027 23.24 12.707 19.574 8.373 28.187 25.84 28.547 26.573a2.657 2.657 0 01-1.24 3.56c-.373.187-.76.267-1.16.267M2007.12 2105.16a2.63 2.63 0 01-.64-.08 2.664 2.664 0 01-1.96-3.213c.04-.134 3.253-14.054-1.107-39.454l-.946-5.4c-2.374-13.64-2.467-14.173-.92-21.333.613-2.827 1.453-6.707 2.48-13.32 3.693-23.613-17.68-106.387-17.907-107.213a2.682 2.682 0 011.92-3.254 2.664 2.664 0 013.253 1.907c.894 3.453 21.867 84.693 18.014 109.373-1.067 6.774-1.92 10.734-2.547 13.64-1.32 6.147-1.32 6.147.96 19.294l.947 5.413c4.573 26.613 1.186 41 1.04 41.6a2.658 2.658 0 01-2.587 2.04" fill="#333"/></svg>